<svg version="1.1" id="Layer_2" xmlns="http://www.w3.org/2000/svg" xmlns:xlink="http://www.w3.org/1999/xlink" x="0px" y="0px"
	 viewBox="0 0 325 398.2" style="enable-background:new 0 0 325 398.2;" xml:space="preserve">
<style type="text/css">
	.st0{fill:#222D65;}
</style>
<path class="st0" d="M228.2,391.2c34.2,0,53.5-4.4,66.2-17.7c19.9-19.3,24.8-50.8,25.9-126.4h-85.6c-1.7,54.1-2.8,62.9-7.2,67.3
	c-3.3,3.3-7.7,5-23.7,5h-73.4c-17.1,0-21.5-1.1-25.4-5c-4.4-4.4-7.2-18.8-7.2-116.5c0-98.2,2.8-112,7.2-117
	c3.9-3.3,8.3-4.4,25.4-4.4H204c15.5,0,20.4,1.1,23.7,4.4c4.4,4.4,6.1,16,7.2,63.5h85.6c-1.1-72.9-6.6-103.8-25.9-123.1
	C282.3,9.3,263,4.8,228.8,4.8H101.8c-36.4,0-51.3,5-64.6,18.2C16.3,43.5,6.4,79.3,6.4,198c0,118.1,9.9,154,30.9,175
	c13.2,13.2,28.1,18.2,64.6,18.2H228.2z"/>
</svg>