<?xml version="1.0" encoding="UTF-8"?>
<svg id="Layer_1" data-name="Layer 1" xmlns="http://www.w3.org/2000/svg" xmlns:xlink="http://www.w3.org/1999/xlink" viewBox="0 0 98.33 98.33">
  <defs>
    <style>
      .cls-1 {
        fill: none;
      }

      .cls-2 {
        clip-path: url(#clippath);
      }

      .cls-3 {
        fill: #002169;
      }

      .cls-4 {
        fill: #fff;
      }

      .cls-5 {
        clip-path: url(#clippath-1);
      }
    </style>
    <clipPath id="clippath">
      <rect class="cls-1" width="98.33" height="98.33"/>
    </clipPath>
    <clipPath id="clippath-1">
      <path class="cls-1" d="m49.17,0C22.01,0,0,22.01,0,49.16s22.01,49.17,49.17,49.17,49.17-22.01,49.17-49.17S76.32,0,49.17,0"/>
    </clipPath>
  </defs>
  <g class="cls-2">
    <g class="cls-5">
      <path class="cls-4" d="m0,0h98.33v98.33H0V0Z"/>
    </g>
  </g>
  <path class="cls-3" d="m74.52,63.14c.52,0,.94-.42.94-.93s-.42-.93-.94-.93-.93.42-.93.93.42.93.93.93Z"/>
  <path class="cls-3" d="m19.45,65.37h59.71v-6.33H19.45v6.33Zm55.07-5.1c1.07,0,1.95.87,1.95,1.94s-.88,1.95-1.95,1.95-1.95-.88-1.95-1.95.88-1.94,1.95-1.94Zm-17.73,1.44h1.6c.28,0,.51.23.51.51s-.22.51-.51.51h-1.6c-.28,0-.51-.23-.51-.51s.22-.51.51-.51Zm-5.52,0h1.6c.28,0,.51.23.51.51s-.22.51-.51.51h-1.6c-.28,0-.51-.23-.51-.51s.23-.51.51-.51Zm-5.53,0h1.6c.28,0,.51.23.51.51s-.23.51-.51.51h-1.6c-.28,0-.51-.23-.51-.51s.22-.51.51-.51Zm-5.52,0h1.6c.28,0,.51.23.51.51s-.23.51-.51.51h-1.6c-.28,0-.51-.23-.51-.51s.23-.51.51-.51Z"/>
  <path class="cls-3" d="m46.62,70.72h-3.26c-.24,2.69-2.4,4.85-5.09,5.09v2.45h23.99v-2.45c-2.69-.24-4.85-2.4-5.09-5.09h-10.54Z"/>
  <path class="cls-3" d="m47.13,66.39h5.81v3.32h-5.81v-3.32Z"/>
  <path class="cls-3" d="m19.45,20.35h59.71v37.67H19.45V20.35Z"/>
</svg>