<svg xmlns="http://www.w3.org/2000/svg" xmlns:xlink="http://www.w3.org/1999/xlink" width="320" zoomAndPan="magnify" viewBox="0 0 240 74.999997" height="100" preserveAspectRatio="xMidYMid meet" version="1.0"><defs><clipPath id="048fc1e049"><path d="M 0.75 0.589844 L 74.5 0.589844 L 74.5 74.335938 L 0.75 74.335938 Z M 0.75 0.589844 " clip-rule="nonzero"/></clipPath><clipPath id="0bbf5bea3b"><path d="M 37.625 0.589844 C 17.257812 0.589844 0.75 17.097656 0.75 37.460938 C 0.75 57.828125 17.257812 74.335938 37.625 74.335938 C 57.988281 74.335938 74.5 57.828125 74.5 37.460938 C 74.5 17.097656 57.988281 0.589844 37.625 0.589844 " clip-rule="nonzero"/></clipPath></defs><g clip-path="url(#048fc1e049)"><g clip-path="url(#0bbf5bea3b)"><path fill="#ffffff" d="M 0.75 0.589844 L 74.5 0.589844 L 74.5 74.335938 L 0.75 74.335938 Z M 0.75 0.589844 " fill-opacity="1" fill-rule="nonzero"/></g></g><path fill="#002169" d="M 56.640625 47.945312 C 57.027344 47.945312 57.34375 47.632812 57.34375 47.246094 C 57.34375 46.863281 57.027344 46.546875 56.640625 46.546875 C 56.253906 46.546875 55.941406 46.863281 55.941406 47.246094 C 55.941406 47.632812 56.253906 47.945312 56.640625 47.945312 Z M 56.640625 47.945312 " fill-opacity="1" fill-rule="nonzero"/><path fill="#002169" d="M 15.339844 49.617188 L 60.125 49.617188 L 60.125 44.871094 L 15.339844 44.871094 Z M 56.640625 45.789062 C 57.445312 45.789062 58.101562 46.441406 58.101562 47.246094 C 58.101562 48.050781 57.445312 48.707031 56.640625 48.707031 C 55.835938 48.707031 55.179688 48.050781 55.179688 47.246094 C 55.179688 46.441406 55.835938 45.789062 56.640625 45.789062 Z M 43.339844 46.867188 L 44.542969 46.867188 C 44.753906 46.867188 44.921875 47.039062 44.921875 47.246094 C 44.921875 47.457031 44.753906 47.628906 44.542969 47.628906 L 43.339844 47.628906 C 43.128906 47.628906 42.960938 47.457031 42.960938 47.246094 C 42.960938 47.039062 43.128906 46.867188 43.339844 46.867188 Z M 39.199219 46.867188 L 40.402344 46.867188 C 40.613281 46.867188 40.78125 47.039062 40.78125 47.246094 C 40.78125 47.457031 40.613281 47.628906 40.402344 47.628906 L 39.199219 47.628906 C 38.992188 47.628906 38.820312 47.457031 38.820312 47.246094 C 38.820312 47.039062 38.992188 46.867188 39.199219 46.867188 Z M 35.054688 46.867188 L 36.257812 46.867188 C 36.46875 46.867188 36.640625 47.039062 36.640625 47.246094 C 36.640625 47.457031 36.46875 47.628906 36.257812 47.628906 L 35.054688 47.628906 C 34.84375 47.628906 34.675781 47.457031 34.675781 47.246094 C 34.675781 47.039062 34.84375 46.867188 35.054688 46.867188 Z M 30.914062 46.867188 L 32.117188 46.867188 C 32.324219 46.867188 32.496094 47.039062 32.496094 47.246094 C 32.496094 47.457031 32.324219 47.628906 32.117188 47.628906 L 30.914062 47.628906 C 30.703125 47.628906 30.53125 47.457031 30.53125 47.246094 C 30.53125 47.039062 30.703125 46.867188 30.914062 46.867188 Z M 30.914062 46.867188 " fill-opacity="1" fill-rule="nonzero"/><path fill="#002169" d="M 35.714844 53.628906 L 33.269531 53.628906 C 33.089844 55.648438 31.472656 57.265625 29.449219 57.445312 L 29.449219 59.28125 L 47.441406 59.28125 L 47.441406 57.445312 C 45.421875 57.265625 43.804688 55.648438 43.621094 53.628906 Z M 35.714844 53.628906 " fill-opacity="1" fill-rule="nonzero"/><path fill="#002169" d="M 36.09375 50.378906 L 40.449219 50.378906 L 40.449219 52.867188 L 36.09375 52.867188 Z M 36.09375 50.378906 " fill-opacity="1" fill-rule="nonzero"/><path fill="#002169" d="M 15.339844 15.855469 L 60.125 15.855469 L 60.125 44.109375 L 15.339844 44.109375 Z M 15.339844 15.855469 " fill-opacity="1" fill-rule="nonzero"/></svg>