<svg xmlns="http://www.w3.org/2000/svg" xmlns:xlink="http://www.w3.org/1999/xlink" width="320" zoomAndPan="magnify" viewBox="0 0 240 74.999997" height="100" preserveAspectRatio="xMidYMid meet" version="1.0"><defs><g/><clipPath id="5f5e6b456f"><path d="M 0.75 0.589844 L 74.5 0.589844 L 74.5 74.335938 L 0.75 74.335938 Z M 0.75 0.589844 " clip-rule="nonzero"/></clipPath><clipPath id="9a355b2daa"><path d="M 37.625 0.589844 C 17.257812 0.589844 0.75 17.097656 0.75 37.460938 C 0.75 57.828125 17.257812 74.335938 37.625 74.335938 C 57.988281 74.335938 74.5 57.828125 74.5 37.460938 C 74.5 17.097656 57.988281 0.589844 37.625 0.589844 " clip-rule="nonzero"/></clipPath></defs><g clip-path="url(#5f5e6b456f)"><g clip-path="url(#9a355b2daa)"><path fill="#ffffff" d="M 0.75 0.589844 L 74.5 0.589844 L 74.5 74.335938 L 0.75 74.335938 Z M 0.75 0.589844 " fill-opacity="1" fill-rule="nonzero"/></g></g><path fill="#002169" d="M 56.640625 47.945312 C 57.027344 47.945312 57.34375 47.632812 57.34375 47.246094 C 57.34375 46.863281 57.027344 46.546875 56.640625 46.546875 C 56.253906 46.546875 55.941406 46.863281 55.941406 47.246094 C 55.941406 47.632812 56.253906 47.945312 56.640625 47.945312 Z M 56.640625 47.945312 " fill-opacity="1" fill-rule="nonzero"/><path fill="#002169" d="M 15.339844 49.617188 L 60.125 49.617188 L 60.125 44.871094 L 15.339844 44.871094 Z M 56.640625 45.789062 C 57.445312 45.789062 58.101562 46.441406 58.101562 47.246094 C 58.101562 48.050781 57.445312 48.707031 56.640625 48.707031 C 55.835938 48.707031 55.179688 48.050781 55.179688 47.246094 C 55.179688 46.441406 55.835938 45.789062 56.640625 45.789062 Z M 43.339844 46.867188 L 44.542969 46.867188 C 44.753906 46.867188 44.921875 47.039062 44.921875 47.246094 C 44.921875 47.457031 44.753906 47.628906 44.542969 47.628906 L 43.339844 47.628906 C 43.128906 47.628906 42.960938 47.457031 42.960938 47.246094 C 42.960938 47.039062 43.128906 46.867188 43.339844 46.867188 Z M 39.199219 46.867188 L 40.402344 46.867188 C 40.613281 46.867188 40.78125 47.039062 40.78125 47.246094 C 40.78125 47.457031 40.613281 47.628906 40.402344 47.628906 L 39.199219 47.628906 C 38.992188 47.628906 38.820312 47.457031 38.820312 47.246094 C 38.820312 47.039062 38.992188 46.867188 39.199219 46.867188 Z M 35.054688 46.867188 L 36.257812 46.867188 C 36.46875 46.867188 36.640625 47.039062 36.640625 47.246094 C 36.640625 47.457031 36.46875 47.628906 36.257812 47.628906 L 35.054688 47.628906 C 34.84375 47.628906 34.675781 47.457031 34.675781 47.246094 C 34.675781 47.039062 34.84375 46.867188 35.054688 46.867188 Z M 30.914062 46.867188 L 32.117188 46.867188 C 32.324219 46.867188 32.496094 47.039062 32.496094 47.246094 C 32.496094 47.457031 32.324219 47.628906 32.117188 47.628906 L 30.914062 47.628906 C 30.703125 47.628906 30.53125 47.457031 30.53125 47.246094 C 30.53125 47.039062 30.703125 46.867188 30.914062 46.867188 Z M 30.914062 46.867188 " fill-opacity="1" fill-rule="nonzero"/><path fill="#002169" d="M 35.714844 53.628906 L 33.269531 53.628906 C 33.089844 55.648438 31.472656 57.265625 29.449219 57.445312 L 29.449219 59.28125 L 47.441406 59.28125 L 47.441406 57.445312 C 45.421875 57.265625 43.804688 55.648438 43.621094 53.628906 Z M 35.714844 53.628906 " fill-opacity="1" fill-rule="nonzero"/><path fill="#002169" d="M 36.09375 50.378906 L 40.449219 50.378906 L 40.449219 52.867188 L 36.09375 52.867188 Z M 36.09375 50.378906 " fill-opacity="1" fill-rule="nonzero"/><path fill="#002169" d="M 15.339844 15.855469 L 60.125 15.855469 L 60.125 44.109375 L 15.339844 44.109375 Z M 15.339844 15.855469 " fill-opacity="1" fill-rule="nonzero"/><g fill="#ffffff" fill-opacity="1"><g transform="translate(94.952428, 34.91195)"><g><path d="M 1.609375 -11.34375 C 2.828125 -11.34375 3.734375 -11.335938 4.328125 -11.328125 C 6.378906 -11.296875 7.882812 -10.804688 8.84375 -9.859375 C 9.8125 -8.921875 10.296875 -7.546875 10.296875 -5.734375 C 10.296875 -3.859375 9.785156 -2.429688 8.765625 -1.453125 C 7.742188 -0.484375 6.21875 0 4.1875 0 L 1.625 0 C 1.4375 0 1.34375 -0.09375 1.34375 -0.28125 L 1.34375 -11.125 C 1.34375 -11.207031 1.363281 -11.265625 1.40625 -11.296875 C 1.445312 -11.328125 1.515625 -11.34375 1.609375 -11.34375 Z M 3.3125 -9.984375 C 3.238281 -9.984375 3.203125 -9.914062 3.203125 -9.78125 L 3.203125 -1.53125 C 3.203125 -1.457031 3.210938 -1.40625 3.234375 -1.375 C 3.265625 -1.351562 3.3125 -1.34375 3.375 -1.34375 L 3.890625 -1.34375 C 4.941406 -1.34375 5.789062 -1.484375 6.4375 -1.765625 C 7.09375 -2.054688 7.578125 -2.519531 7.890625 -3.15625 C 8.210938 -3.800781 8.375 -4.65625 8.375 -5.71875 C 8.375 -6.757812 8.226562 -7.582031 7.9375 -8.1875 C 7.644531 -8.800781 7.203125 -9.238281 6.609375 -9.5 C 6.015625 -9.769531 5.234375 -9.925781 4.265625 -9.96875 Z M 3.3125 -9.984375 "/></g></g></g><g fill="#ffffff" fill-opacity="1"><g transform="translate(106.139337, 34.91195)"><g><path d="M 3 -11.34375 C 3.132812 -11.34375 3.203125 -11.269531 3.203125 -11.125 L 3.203125 -0.296875 C 3.203125 -0.179688 3.175781 -0.101562 3.125 -0.0625 C 3.082031 -0.0195312 3 0 2.875 0 L 1.625 0 C 1.519531 0 1.445312 -0.015625 1.40625 -0.046875 C 1.363281 -0.0859375 1.34375 -0.15625 1.34375 -0.25 L 1.34375 -11.125 C 1.34375 -11.269531 1.414062 -11.34375 1.5625 -11.34375 Z M 3 -11.34375 "/></g></g></g><g fill="#ffffff" fill-opacity="1"><g transform="translate(110.699792, 34.91195)"><g><path d="M 5.75 0.15625 C 4.757812 0.15625 3.894531 -0.078125 3.15625 -0.546875 C 2.425781 -1.015625 1.863281 -1.6875 1.46875 -2.5625 C 1.082031 -3.4375 0.890625 -4.457031 0.890625 -5.625 C 0.890625 -6.832031 1.09375 -7.878906 1.5 -8.765625 C 1.90625 -9.648438 2.484375 -10.328125 3.234375 -10.796875 C 3.984375 -11.265625 4.851562 -11.5 5.84375 -11.5 C 6.5625 -11.5 7.234375 -11.351562 7.859375 -11.0625 C 8.484375 -10.769531 8.992188 -10.382812 9.390625 -9.90625 C 9.785156 -9.425781 10.03125 -8.914062 10.125 -8.375 C 10.132812 -8.34375 10.140625 -8.300781 10.140625 -8.25 C 10.140625 -8.195312 10.125 -8.160156 10.09375 -8.140625 C 10.070312 -8.117188 10.035156 -8.101562 9.984375 -8.09375 L 8.59375 -7.875 L 8.5625 -7.875 C 8.507812 -7.875 8.472656 -7.890625 8.453125 -7.921875 C 8.429688 -7.953125 8.414062 -8 8.40625 -8.0625 C 8.300781 -8.65625 8.015625 -9.148438 7.546875 -9.546875 C 7.078125 -9.941406 6.5 -10.140625 5.8125 -10.140625 C 4.84375 -10.140625 4.101562 -9.769531 3.59375 -9.03125 C 3.082031 -8.289062 2.828125 -7.1875 2.828125 -5.71875 C 2.828125 -2.707031 3.835938 -1.203125 5.859375 -1.203125 C 6.421875 -1.203125 6.898438 -1.320312 7.296875 -1.5625 C 7.691406 -1.800781 8 -2.109375 8.21875 -2.484375 C 8.4375 -2.859375 8.566406 -3.25 8.609375 -3.65625 L 8.625 -4.421875 L 8.625 -4.484375 C 8.625 -4.566406 8.570312 -4.609375 8.46875 -4.609375 L 6.1875 -4.609375 C 6.113281 -4.609375 6.0625 -4.617188 6.03125 -4.640625 C 6.007812 -4.671875 6 -4.71875 6 -4.78125 L 6 -5.59375 C 6 -5.707031 6.054688 -5.765625 6.171875 -5.765625 L 10.046875 -5.75 C 10.253906 -5.75 10.359375 -5.664062 10.359375 -5.5 L 10.359375 -0.203125 C 10.359375 -0.0664062 10.289062 0 10.15625 0 L 9.765625 0 C 9.679688 0 9.613281 -0.0078125 9.5625 -0.03125 C 9.507812 -0.0625 9.46875 -0.117188 9.4375 -0.203125 L 9.1875 -1.515625 C 9.15625 -1.609375 9.109375 -1.609375 9.046875 -1.515625 C 8.304688 -0.398438 7.207031 0.15625 5.75 0.15625 Z M 5.75 0.15625 "/></g></g></g><g fill="#ffffff" fill-opacity="1"><g transform="translate(122.070338, 34.91195)"><g><path d="M 3 -11.34375 C 3.132812 -11.34375 3.203125 -11.269531 3.203125 -11.125 L 3.203125 -0.296875 C 3.203125 -0.179688 3.175781 -0.101562 3.125 -0.0625 C 3.082031 -0.0195312 3 0 2.875 0 L 1.625 0 C 1.519531 0 1.445312 -0.015625 1.40625 -0.046875 C 1.363281 -0.0859375 1.34375 -0.15625 1.34375 -0.25 L 1.34375 -11.125 C 1.34375 -11.269531 1.414062 -11.34375 1.5625 -11.34375 Z M 3 -11.34375 "/></g></g></g><g fill="#ffffff" fill-opacity="1"><g transform="translate(126.630793, 34.91195)"><g><path d="M 0.59375 -11.140625 C 0.59375 -11.273438 0.671875 -11.34375 0.828125 -11.34375 L 9.21875 -11.34375 C 9.363281 -11.34375 9.4375 -11.273438 9.4375 -11.140625 L 9.4375 -10.15625 C 9.4375 -10.03125 9.363281 -9.96875 9.21875 -9.96875 L 6.1875 -9.96875 C 6.132812 -9.96875 6.097656 -9.957031 6.078125 -9.9375 C 6.054688 -9.914062 6.046875 -9.878906 6.046875 -9.828125 L 6.046875 -0.234375 C 6.046875 -0.078125 5.972656 0 5.828125 0 L 4.390625 0 C 4.253906 0 4.1875 -0.0703125 4.1875 -0.21875 L 4.1875 -9.8125 C 4.1875 -9.875 4.171875 -9.914062 4.140625 -9.9375 C 4.117188 -9.957031 4.078125 -9.96875 4.015625 -9.96875 L 0.8125 -9.96875 C 0.664062 -9.96875 0.59375 -10.03125 0.59375 -10.15625 Z M 0.59375 -11.140625 "/></g></g></g><g fill="#ffffff" fill-opacity="1"><g transform="translate(136.669931, 34.91195)"><g><path d="M 0.8125 0 C 0.6875 0 0.625 -0.0625 0.625 -0.1875 L 0.65625 -0.328125 L 4.5625 -11.109375 C 4.59375 -11.203125 4.628906 -11.265625 4.671875 -11.296875 C 4.722656 -11.328125 4.796875 -11.34375 4.890625 -11.34375 L 6.4375 -11.34375 C 6.632812 -11.34375 6.765625 -11.257812 6.828125 -11.09375 L 10.6875 -0.3125 C 10.695312 -0.289062 10.703125 -0.253906 10.703125 -0.203125 C 10.703125 -0.0664062 10.648438 0 10.546875 0 L 9.09375 0 C 8.957031 0 8.867188 -0.0625 8.828125 -0.1875 L 7.84375 -2.90625 C 7.820312 -2.957031 7.800781 -2.992188 7.78125 -3.015625 C 7.757812 -3.035156 7.71875 -3.046875 7.65625 -3.046875 L 3.421875 -3.046875 C 3.328125 -3.046875 3.269531 -3.003906 3.25 -2.921875 L 2.25 -0.15625 C 2.21875 -0.0507812 2.128906 0 1.984375 0 Z M 7.1875 -4.484375 C 7.257812 -4.484375 7.300781 -4.5 7.3125 -4.53125 C 7.332031 -4.570312 7.332031 -4.628906 7.3125 -4.703125 L 5.65625 -9.28125 C 5.625 -9.351562 5.585938 -9.390625 5.546875 -9.390625 C 5.503906 -9.390625 5.472656 -9.347656 5.453125 -9.265625 L 3.75 -4.6875 L 3.734375 -4.59375 C 3.734375 -4.519531 3.78125 -4.484375 3.875 -4.484375 Z M 7.1875 -4.484375 "/></g></g></g><g fill="#ffffff" fill-opacity="1"><g transform="translate(148.009868, 34.91195)"><g><path d="M 1.34375 -11.125 C 1.34375 -11.269531 1.414062 -11.34375 1.5625 -11.34375 L 3 -11.34375 C 3.132812 -11.34375 3.203125 -11.269531 3.203125 -11.125 L 3.203125 -1.5625 C 3.203125 -1.5 3.210938 -1.453125 3.234375 -1.421875 C 3.265625 -1.398438 3.300781 -1.390625 3.34375 -1.390625 L 8.515625 -1.390625 C 8.585938 -1.390625 8.640625 -1.375 8.671875 -1.34375 C 8.710938 -1.320312 8.734375 -1.273438 8.734375 -1.203125 L 8.734375 -0.203125 C 8.734375 -0.0664062 8.660156 0 8.515625 0 L 1.609375 0 C 1.515625 0 1.445312 -0.0195312 1.40625 -0.0625 C 1.363281 -0.101562 1.34375 -0.164062 1.34375 -0.25 Z M 1.34375 -11.125 "/></g></g></g><g fill="#ffffff" fill-opacity="1"><g transform="translate(94.952428, 50.215407)"><g><path d="M 1.34375 -11.125 C 1.34375 -11.207031 1.359375 -11.265625 1.390625 -11.296875 C 1.421875 -11.328125 1.476562 -11.34375 1.5625 -11.34375 L 8.6875 -11.34375 C 8.8125 -11.34375 8.875 -11.28125 8.875 -11.15625 L 8.859375 -10.1875 C 8.859375 -10.03125 8.78125 -9.953125 8.625 -9.953125 L 3.421875 -9.953125 C 3.273438 -9.953125 3.203125 -9.890625 3.203125 -9.765625 L 3.203125 -6.609375 C 3.203125 -6.472656 3.265625 -6.40625 3.390625 -6.40625 L 7.125 -6.40625 C 7.257812 -6.40625 7.328125 -6.34375 7.328125 -6.21875 L 7.328125 -5.203125 C 7.328125 -5.085938 7.257812 -5.03125 7.125 -5.03125 L 3.375 -5.03125 C 3.257812 -5.03125 3.203125 -4.972656 3.203125 -4.859375 L 3.203125 -1.5625 C 3.203125 -1.5 3.210938 -1.453125 3.234375 -1.421875 C 3.265625 -1.398438 3.300781 -1.390625 3.34375 -1.390625 L 8.84375 -1.390625 C 8.925781 -1.390625 8.984375 -1.375 9.015625 -1.34375 C 9.046875 -1.320312 9.0625 -1.273438 9.0625 -1.203125 L 9.0625 -0.203125 C 9.0625 -0.0664062 8.988281 0 8.84375 0 L 1.609375 0 C 1.503906 0 1.429688 -0.015625 1.390625 -0.046875 C 1.359375 -0.0859375 1.34375 -0.15625 1.34375 -0.25 Z M 1.34375 -11.125 "/></g></g></g><g fill="#ffffff" fill-opacity="1"><g transform="translate(104.68549, 50.215407)"><g><path d="M 9.984375 -0.40625 C 10.066406 -0.28125 10.109375 -0.191406 10.109375 -0.140625 C 10.109375 -0.046875 10.023438 0 9.859375 0 L 8.40625 0 C 8.257812 0 8.148438 -0.0546875 8.078125 -0.171875 L 5.421875 -4.25 C 5.359375 -4.363281 5.296875 -4.421875 5.234375 -4.421875 C 5.191406 -4.421875 5.128906 -4.359375 5.046875 -4.234375 L 2.421875 -0.171875 C 2.347656 -0.0546875 2.226562 0 2.0625 0 L 0.859375 0 C 0.703125 0 0.625 -0.046875 0.625 -0.140625 C 0.625 -0.210938 0.660156 -0.300781 0.734375 -0.40625 L 4.15625 -5.5625 C 4.207031 -5.644531 4.234375 -5.710938 4.234375 -5.765625 C 4.234375 -5.835938 4.203125 -5.910156 4.140625 -5.984375 L 0.796875 -11.0625 C 0.765625 -11.113281 0.75 -11.160156 0.75 -11.203125 C 0.75 -11.296875 0.804688 -11.34375 0.921875 -11.34375 L 2.46875 -11.34375 C 2.550781 -11.34375 2.613281 -11.332031 2.65625 -11.3125 C 2.707031 -11.289062 2.753906 -11.25 2.796875 -11.1875 L 5.234375 -7.40625 C 5.273438 -7.332031 5.320312 -7.296875 5.375 -7.296875 C 5.4375 -7.296875 5.484375 -7.332031 5.515625 -7.40625 L 7.953125 -11.1875 C 7.984375 -11.25 8.019531 -11.289062 8.0625 -11.3125 C 8.113281 -11.332031 8.1875 -11.34375 8.28125 -11.34375 L 9.625 -11.34375 C 9.726562 -11.34375 9.78125 -11.3125 9.78125 -11.25 C 9.78125 -11.207031 9.757812 -11.15625 9.71875 -11.09375 L 6.421875 -6.15625 C 6.378906 -6.101562 6.359375 -6.039062 6.359375 -5.96875 C 6.359375 -5.914062 6.378906 -5.851562 6.421875 -5.78125 Z M 9.984375 -0.40625 "/></g></g></g><g fill="#ffffff" fill-opacity="1"><g transform="translate(115.413294, 50.215407)"><g><path d="M 3.34375 -5.171875 C 3.300781 -5.171875 3.265625 -5.15625 3.234375 -5.125 C 3.210938 -5.09375 3.203125 -5.054688 3.203125 -5.015625 L 3.203125 -0.265625 C 3.203125 -0.0859375 3.101562 0 2.90625 0 L 1.609375 0 C 1.515625 0 1.445312 -0.0195312 1.40625 -0.0625 C 1.363281 -0.101562 1.34375 -0.164062 1.34375 -0.25 L 1.34375 -11.125 C 1.34375 -11.269531 1.414062 -11.34375 1.5625 -11.34375 L 3 -11.34375 C 3.132812 -11.34375 3.203125 -11.269531 3.203125 -11.125 L 3.203125 -6.828125 C 3.203125 -6.742188 3.210938 -6.6875 3.234375 -6.65625 C 3.265625 -6.625 3.316406 -6.609375 3.390625 -6.609375 L 7.9375 -6.609375 C 8.0625 -6.609375 8.125 -6.675781 8.125 -6.8125 L 8.125 -11.140625 C 8.125 -11.273438 8.1875 -11.34375 8.3125 -11.34375 L 9.78125 -11.34375 C 9.90625 -11.34375 9.96875 -11.269531 9.96875 -11.125 L 9.96875 -0.25 C 9.96875 -0.164062 9.945312 -0.101562 9.90625 -0.0625 C 9.875 -0.0195312 9.8125 0 9.71875 0 L 8.421875 0 C 8.316406 0 8.238281 -0.015625 8.1875 -0.046875 C 8.144531 -0.0859375 8.125 -0.160156 8.125 -0.265625 L 8.125 -5 C 8.125 -5.113281 8.066406 -5.171875 7.953125 -5.171875 Z M 3.34375 -5.171875 "/></g></g></g><g fill="#ffffff" fill-opacity="1"><g transform="translate(126.737936, 50.215407)"><g><path d="M 3 -11.34375 C 3.132812 -11.34375 3.203125 -11.269531 3.203125 -11.125 L 3.203125 -0.296875 C 3.203125 -0.179688 3.175781 -0.101562 3.125 -0.0625 C 3.082031 -0.0195312 3 0 2.875 0 L 1.625 0 C 1.519531 0 1.445312 -0.015625 1.40625 -0.046875 C 1.363281 -0.0859375 1.34375 -0.15625 1.34375 -0.25 L 1.34375 -11.125 C 1.34375 -11.269531 1.414062 -11.34375 1.5625 -11.34375 Z M 3 -11.34375 "/></g></g></g><g fill="#ffffff" fill-opacity="1"><g transform="translate(131.298391, 50.215407)"><g><path d="M 1.578125 0 C 1.503906 0 1.445312 -0.0195312 1.40625 -0.0625 C 1.363281 -0.101562 1.34375 -0.15625 1.34375 -0.21875 L 1.34375 -11.09375 C 1.34375 -11.257812 1.425781 -11.34375 1.59375 -11.34375 L 5.3125 -11.34375 C 6.71875 -11.34375 7.796875 -11.085938 8.546875 -10.578125 C 9.304688 -10.078125 9.6875 -9.347656 9.6875 -8.390625 C 9.6875 -7.796875 9.523438 -7.289062 9.203125 -6.875 C 8.890625 -6.457031 8.378906 -6.125 7.671875 -5.875 C 7.640625 -5.863281 7.625 -5.835938 7.625 -5.796875 C 7.625 -5.765625 7.640625 -5.742188 7.671875 -5.734375 C 8.429688 -5.535156 9 -5.210938 9.375 -4.765625 C 9.757812 -4.328125 9.953125 -3.753906 9.953125 -3.046875 C 9.953125 -2.023438 9.566406 -1.257812 8.796875 -0.75 C 8.035156 -0.25 6.921875 0 5.453125 0 Z M 5.515625 -6.40625 C 6.160156 -6.40625 6.707031 -6.546875 7.15625 -6.828125 C 7.601562 -7.117188 7.828125 -7.570312 7.828125 -8.1875 C 7.828125 -8.800781 7.601562 -9.265625 7.15625 -9.578125 C 6.71875 -9.890625 6.113281 -10.046875 5.34375 -10.046875 L 3.421875 -10.046875 C 3.273438 -10.046875 3.203125 -9.976562 3.203125 -9.84375 L 3.203125 -6.625 C 3.203125 -6.476562 3.253906 -6.40625 3.359375 -6.40625 Z M 5.375 -1.296875 C 7.144531 -1.296875 8.03125 -1.914062 8.03125 -3.15625 C 8.03125 -3.789062 7.800781 -4.265625 7.34375 -4.578125 C 6.882812 -4.898438 6.273438 -5.0625 5.515625 -5.0625 L 3.4375 -5.0625 C 3.34375 -5.0625 3.28125 -5.046875 3.25 -5.015625 C 3.21875 -4.984375 3.203125 -4.929688 3.203125 -4.859375 L 3.203125 -1.53125 C 3.203125 -1.375 3.253906 -1.296875 3.359375 -1.296875 Z M 5.375 -1.296875 "/></g></g></g><g fill="#ffffff" fill-opacity="1"><g transform="translate(142.118005, 50.215407)"><g><path d="M 3 -11.34375 C 3.132812 -11.34375 3.203125 -11.269531 3.203125 -11.125 L 3.203125 -0.296875 C 3.203125 -0.179688 3.175781 -0.101562 3.125 -0.0625 C 3.082031 -0.0195312 3 0 2.875 0 L 1.625 0 C 1.519531 0 1.445312 -0.015625 1.40625 -0.046875 C 1.363281 -0.0859375 1.34375 -0.15625 1.34375 -0.25 L 1.34375 -11.125 C 1.34375 -11.269531 1.414062 -11.34375 1.5625 -11.34375 Z M 3 -11.34375 "/></g></g></g><g fill="#ffffff" fill-opacity="1"><g transform="translate(146.678459, 50.215407)"><g><path d="M 0.59375 -11.140625 C 0.59375 -11.273438 0.671875 -11.34375 0.828125 -11.34375 L 9.21875 -11.34375 C 9.363281 -11.34375 9.4375 -11.273438 9.4375 -11.140625 L 9.4375 -10.15625 C 9.4375 -10.03125 9.363281 -9.96875 9.21875 -9.96875 L 6.1875 -9.96875 C 6.132812 -9.96875 6.097656 -9.957031 6.078125 -9.9375 C 6.054688 -9.914062 6.046875 -9.878906 6.046875 -9.828125 L 6.046875 -0.234375 C 6.046875 -0.078125 5.972656 0 5.828125 0 L 4.390625 0 C 4.253906 0 4.1875 -0.0703125 4.1875 -0.21875 L 4.1875 -9.8125 C 4.1875 -9.875 4.171875 -9.914062 4.140625 -9.9375 C 4.117188 -9.957031 4.078125 -9.96875 4.015625 -9.96875 L 0.8125 -9.96875 C 0.664062 -9.96875 0.59375 -10.03125 0.59375 -10.15625 Z M 0.59375 -11.140625 "/></g></g></g><g fill="#ffffff" fill-opacity="1"><g transform="translate(156.717597, 50.215407)"><g><path d="M 7.625 -9.0625 C 7.320312 -9.394531 6.972656 -9.65625 6.578125 -9.84375 C 6.179688 -10.039062 5.695312 -10.140625 5.125 -10.140625 C 4.394531 -10.140625 3.828125 -9.988281 3.421875 -9.6875 C 3.023438 -9.382812 2.828125 -8.96875 2.828125 -8.4375 C 2.828125 -7.738281 3.328125 -7.222656 4.328125 -6.890625 L 6.625 -6.171875 C 8.351562 -5.628906 9.21875 -4.609375 9.21875 -3.109375 C 9.21875 -2.097656 8.84375 -1.300781 8.09375 -0.71875 C 7.34375 -0.132812 6.316406 0.15625 5.015625 0.15625 C 4.046875 0.15625 3.1875 -0.0078125 2.4375 -0.34375 C 1.695312 -0.6875 1.125 -1.171875 0.71875 -1.796875 C 0.675781 -1.867188 0.65625 -1.914062 0.65625 -1.9375 C 0.65625 -2.019531 0.707031 -2.097656 0.8125 -2.171875 L 1.5625 -2.6875 C 1.65625 -2.75 1.738281 -2.78125 1.8125 -2.78125 C 1.875 -2.78125 1.929688 -2.742188 1.984375 -2.671875 C 2.398438 -2.128906 2.816406 -1.742188 3.234375 -1.515625 C 3.648438 -1.296875 4.207031 -1.1875 4.90625 -1.1875 C 5.707031 -1.1875 6.332031 -1.320312 6.78125 -1.59375 C 7.226562 -1.875 7.453125 -2.304688 7.453125 -2.890625 C 7.453125 -3.253906 7.335938 -3.5625 7.109375 -3.8125 C 6.878906 -4.0625 6.460938 -4.296875 5.859375 -4.515625 L 3.546875 -5.265625 C 2.722656 -5.535156 2.101562 -5.9375 1.6875 -6.46875 C 1.28125 -7 1.078125 -7.59375 1.078125 -8.25 C 1.078125 -8.882812 1.242188 -9.445312 1.578125 -9.9375 C 1.910156 -10.4375 2.378906 -10.820312 2.984375 -11.09375 C 3.597656 -11.363281 4.300781 -11.5 5.09375 -11.5 C 5.875 -11.5 6.582031 -11.359375 7.21875 -11.078125 C 7.863281 -10.804688 8.390625 -10.429688 8.796875 -9.953125 C 8.847656 -9.898438 8.875 -9.847656 8.875 -9.796875 C 8.875 -9.734375 8.847656 -9.679688 8.796875 -9.640625 L 7.921875 -8.96875 C 7.878906 -8.9375 7.835938 -8.921875 7.796875 -8.921875 C 7.765625 -8.921875 7.707031 -8.96875 7.625 -9.0625 Z M 7.625 -9.0625 "/></g></g></g></svg>