<?xml version="1.0" encoding="UTF-8"?>
<svg id="Layer_1" data-name="Layer 1" xmlns="http://www.w3.org/2000/svg" xmlns:xlink="http://www.w3.org/1999/xlink" viewBox="0 0 98.34 98.34">
  <defs>
    <style>
      .cls-1 {
        fill: none;
      }

      .cls-2 {
        clip-path: url(#clippath);
      }

      .cls-3 {
        fill: #002169;
      }

      .cls-4 {
        fill: #fff;
      }

      .cls-5 {
        clip-path: url(#clippath-1);
      }

      .cls-6 {
        clip-path: url(#clippath-2);
      }
    </style>
    <clipPath id="clippath">
      <rect class="cls-1" width="98.34" height="98.34"/>
    </clipPath>
    <clipPath id="clippath-1">
      <path class="cls-1" d="m49.17,0C22.02,0,0,22.02,0,49.17s22.02,49.17,49.17,49.17,49.17-22.02,49.17-49.17S76.33,0,49.17,0"/>
    </clipPath>
    <clipPath id="clippath-2">
      <rect class="cls-1" x="27" y="15.72" width="44" height="66.87"/>
    </clipPath>
  </defs>
  <g class="cls-2">
    <g class="cls-5">
      <path class="cls-4" d="m0,0h98.34v98.34H0V0Z"/>
    </g>
  </g>
  <g class="cls-6">
    <path class="cls-3" d="m49.4,15.72c-13.72,0-21.5,7.74-21.72,18.94v.56h12.11v-.56c.27-4.95,3.67-8.14,8.8-8.14s8.49,2.96,8.49,7.15-1.74,6.34-7.51,9.81c-6.17,3.64-8.63,7.69-8.05,14.89l.07,1.92h11.86v-1.83c0-4.32,1.66-6.53,7.6-9.99,6.3-3.74,9.56-8.46,9.56-15.21,0-10.4-8.44-17.55-21.22-17.55Zm-1.61,52.94c-4.55,0-7.39,2.66-7.39,6.99s2.84,6.94,7.39,6.94,7.34-2.65,7.34-6.94-2.8-6.99-7.34-6.99Z"/>
  </g>
</svg>