<svg xmlns="http://www.w3.org/2000/svg" xmlns:xlink="http://www.w3.org/1999/xlink" width="320" zoomAndPan="magnify" viewBox="0 0 240 74.999997" height="100" preserveAspectRatio="xMidYMid meet" version="1.0"><defs><g/><clipPath id="cc42c026f5"><path d="M 0.75 0.726562 L 74.507812 0.726562 L 74.507812 74.484375 L 0.75 74.484375 Z M 0.75 0.726562 " clip-rule="nonzero"/></clipPath><clipPath id="c5d69e82de"><path d="M 37.628906 0.726562 C 17.261719 0.726562 0.75 17.238281 0.75 37.605469 C 0.75 57.972656 17.261719 74.484375 37.628906 74.484375 C 57.996094 74.484375 74.507812 57.972656 74.507812 37.605469 C 74.507812 17.238281 57.996094 0.726562 37.628906 0.726562 " clip-rule="nonzero"/></clipPath><clipPath id="c937f142c6"><path d="M 21 12.515625 L 54 12.515625 L 54 62.667969 L 21 62.667969 Z M 21 12.515625 " clip-rule="nonzero"/></clipPath></defs><g clip-path="url(#cc42c026f5)"><g clip-path="url(#c5d69e82de)"><path fill="#ffffff" d="M 0.75 0.726562 L 74.507812 0.726562 L 74.507812 74.484375 L 0.75 74.484375 Z M 0.75 0.726562 " fill-opacity="1" fill-rule="nonzero"/></g></g><g clip-path="url(#c937f142c6)"><path fill="#002169" d="M 37.796875 12.515625 C 27.507812 12.515625 21.671875 18.320312 21.503906 26.722656 L 21.503906 27.140625 L 30.589844 27.140625 L 30.589844 26.722656 C 30.789062 23.011719 33.339844 20.617188 37.191406 20.617188 C 41.015625 20.617188 43.5625 22.839844 43.5625 25.980469 C 43.5625 29.117188 42.253906 30.738281 37.929688 33.339844 C 33.304688 36.070312 31.457031 39.109375 31.894531 44.507812 L 31.945312 45.949219 L 40.84375 45.949219 L 40.84375 44.578125 C 40.84375 41.339844 42.085938 39.683594 46.546875 37.085938 C 51.269531 34.28125 53.714844 30.742188 53.714844 25.675781 C 53.714844 17.878906 47.382812 12.515625 37.796875 12.515625 Z M 36.589844 52.21875 C 33.179688 52.21875 31.050781 54.214844 31.050781 57.460938 C 31.050781 60.679688 33.179688 62.667969 36.589844 62.667969 C 39.996094 62.667969 42.097656 60.679688 42.097656 57.460938 C 42.097656 54.214844 40 52.21875 36.589844 52.21875 Z M 36.589844 52.21875 " fill-opacity="1" fill-rule="nonzero"/></g><g fill="#ffffff" fill-opacity="1"><g transform="translate(94.962544, 42.706917)"><g><path d="M 5.75 0.15625 C 4.757812 0.15625 3.894531 -0.078125 3.15625 -0.546875 C 2.425781 -1.015625 1.863281 -1.6875 1.46875 -2.5625 C 1.082031 -3.4375 0.890625 -4.460938 0.890625 -5.640625 C 0.890625 -6.835938 1.09375 -7.878906 1.5 -8.765625 C 1.90625 -9.660156 2.484375 -10.34375 3.234375 -10.8125 C 3.984375 -11.28125 4.851562 -11.515625 5.84375 -11.515625 C 6.570312 -11.515625 7.242188 -11.367188 7.859375 -11.078125 C 8.484375 -10.785156 8.992188 -10.398438 9.390625 -9.921875 C 9.796875 -9.441406 10.046875 -8.929688 10.140625 -8.390625 C 10.148438 -8.347656 10.15625 -8.300781 10.15625 -8.25 C 10.15625 -8.195312 10.140625 -8.160156 10.109375 -8.140625 C 10.085938 -8.117188 10.050781 -8.101562 10 -8.09375 L 8.609375 -7.890625 L 8.578125 -7.890625 C 8.523438 -7.890625 8.488281 -7.90625 8.46875 -7.9375 C 8.445312 -7.96875 8.429688 -8.007812 8.421875 -8.0625 C 8.304688 -8.65625 8.015625 -9.148438 7.546875 -9.546875 C 7.078125 -9.953125 6.5 -10.15625 5.8125 -10.15625 C 4.84375 -10.15625 4.101562 -9.785156 3.59375 -9.046875 C 3.082031 -8.304688 2.828125 -7.203125 2.828125 -5.734375 C 2.828125 -2.710938 3.835938 -1.203125 5.859375 -1.203125 C 6.421875 -1.203125 6.898438 -1.320312 7.296875 -1.5625 C 7.703125 -1.800781 8.015625 -2.109375 8.234375 -2.484375 C 8.453125 -2.859375 8.582031 -3.25 8.625 -3.65625 L 8.640625 -4.421875 L 8.640625 -4.484375 C 8.640625 -4.566406 8.585938 -4.609375 8.484375 -4.609375 L 6.1875 -4.609375 C 6.113281 -4.609375 6.0625 -4.617188 6.03125 -4.640625 C 6.007812 -4.671875 6 -4.722656 6 -4.796875 L 6 -5.609375 C 6 -5.710938 6.054688 -5.765625 6.171875 -5.765625 L 10.0625 -5.75 C 10.257812 -5.75 10.359375 -5.671875 10.359375 -5.515625 L 10.359375 -0.203125 C 10.359375 -0.0664062 10.296875 0 10.171875 0 L 9.765625 0 C 9.679688 0 9.613281 -0.0078125 9.5625 -0.03125 C 9.519531 -0.0625 9.484375 -0.117188 9.453125 -0.203125 L 9.203125 -1.515625 C 9.171875 -1.609375 9.117188 -1.609375 9.046875 -1.515625 C 8.316406 -0.398438 7.21875 0.15625 5.75 0.15625 Z M 5.75 0.15625 "/></g></g></g><g fill="#ffffff" fill-opacity="1"><g transform="translate(106.334311, 42.706917)"><g><path d="M 1.34375 -11.125 C 1.34375 -11.207031 1.359375 -11.265625 1.390625 -11.296875 C 1.421875 -11.335938 1.476562 -11.359375 1.5625 -11.359375 L 8.703125 -11.359375 C 8.816406 -11.359375 8.875 -11.289062 8.875 -11.15625 L 8.859375 -10.203125 C 8.859375 -10.046875 8.785156 -9.96875 8.640625 -9.96875 L 3.4375 -9.96875 C 3.28125 -9.96875 3.203125 -9.898438 3.203125 -9.765625 L 3.203125 -6.609375 C 3.203125 -6.484375 3.269531 -6.421875 3.40625 -6.421875 L 7.140625 -6.421875 C 7.265625 -6.421875 7.328125 -6.359375 7.328125 -6.234375 L 7.328125 -5.203125 C 7.328125 -5.085938 7.265625 -5.03125 7.140625 -5.03125 L 3.390625 -5.03125 C 3.265625 -5.03125 3.203125 -4.976562 3.203125 -4.875 L 3.203125 -1.5625 C 3.203125 -1.5 3.210938 -1.453125 3.234375 -1.421875 C 3.265625 -1.398438 3.304688 -1.390625 3.359375 -1.390625 L 8.84375 -1.390625 C 8.925781 -1.390625 8.984375 -1.375 9.015625 -1.34375 C 9.046875 -1.320312 9.0625 -1.273438 9.0625 -1.203125 L 9.0625 -0.203125 C 9.0625 -0.0664062 8.988281 0 8.84375 0 L 1.609375 0 C 1.503906 0 1.429688 -0.015625 1.390625 -0.046875 C 1.359375 -0.0859375 1.34375 -0.15625 1.34375 -0.25 Z M 1.34375 -11.125 "/></g></g></g><g fill="#ffffff" fill-opacity="1"><g transform="translate(116.068418, 42.706917)"><g><path d="M 0.59375 -11.140625 C 0.59375 -11.285156 0.671875 -11.359375 0.828125 -11.359375 L 9.234375 -11.359375 C 9.378906 -11.359375 9.453125 -11.285156 9.453125 -11.140625 L 9.453125 -10.171875 C 9.453125 -10.046875 9.378906 -9.984375 9.234375 -9.984375 L 6.203125 -9.984375 C 6.140625 -9.984375 6.097656 -9.972656 6.078125 -9.953125 C 6.054688 -9.929688 6.046875 -9.894531 6.046875 -9.84375 L 6.046875 -0.234375 C 6.046875 -0.078125 5.972656 0 5.828125 0 L 4.390625 0 C 4.265625 0 4.203125 -0.0703125 4.203125 -0.21875 L 4.203125 -9.8125 C 4.203125 -9.882812 4.1875 -9.929688 4.15625 -9.953125 C 4.132812 -9.972656 4.09375 -9.984375 4.03125 -9.984375 L 0.8125 -9.984375 C 0.664062 -9.984375 0.59375 -10.046875 0.59375 -10.171875 Z M 0.59375 -11.140625 "/></g></g></g><g fill="#ffffff" fill-opacity="1"><g transform="translate(126.108633, 42.706917)"><g/></g></g><g fill="#ffffff" fill-opacity="1"><g transform="translate(129.353342, 42.706917)"><g><path d="M 3.359375 -5.171875 C 3.316406 -5.171875 3.28125 -5.15625 3.25 -5.125 C 3.21875 -5.09375 3.203125 -5.054688 3.203125 -5.015625 L 3.203125 -0.265625 C 3.203125 -0.0859375 3.101562 0 2.90625 0 L 1.609375 0 C 1.515625 0 1.445312 -0.0195312 1.40625 -0.0625 C 1.363281 -0.101562 1.34375 -0.164062 1.34375 -0.25 L 1.34375 -11.125 C 1.34375 -11.28125 1.414062 -11.359375 1.5625 -11.359375 L 3 -11.359375 C 3.132812 -11.359375 3.203125 -11.28125 3.203125 -11.125 L 3.203125 -6.828125 C 3.203125 -6.742188 3.21875 -6.6875 3.25 -6.65625 C 3.28125 -6.625 3.332031 -6.609375 3.40625 -6.609375 L 7.953125 -6.609375 C 8.066406 -6.609375 8.125 -6.675781 8.125 -6.8125 L 8.125 -11.140625 C 8.125 -11.285156 8.1875 -11.359375 8.3125 -11.359375 L 9.78125 -11.359375 C 9.914062 -11.359375 9.984375 -11.28125 9.984375 -11.125 L 9.984375 -0.25 C 9.984375 -0.164062 9.960938 -0.101562 9.921875 -0.0625 C 9.890625 -0.0195312 9.820312 0 9.71875 0 L 8.4375 0 C 8.320312 0 8.238281 -0.015625 8.1875 -0.046875 C 8.144531 -0.0859375 8.125 -0.160156 8.125 -0.265625 L 8.125 -5 C 8.125 -5.113281 8.070312 -5.171875 7.96875 -5.171875 Z M 3.359375 -5.171875 "/></g></g></g><g fill="#ffffff" fill-opacity="1"><g transform="translate(140.679199, 42.706917)"><g><path d="M 1.34375 -11.125 C 1.34375 -11.207031 1.359375 -11.265625 1.390625 -11.296875 C 1.421875 -11.335938 1.476562 -11.359375 1.5625 -11.359375 L 8.703125 -11.359375 C 8.816406 -11.359375 8.875 -11.289062 8.875 -11.15625 L 8.859375 -10.203125 C 8.859375 -10.046875 8.785156 -9.96875 8.640625 -9.96875 L 3.4375 -9.96875 C 3.28125 -9.96875 3.203125 -9.898438 3.203125 -9.765625 L 3.203125 -6.609375 C 3.203125 -6.484375 3.269531 -6.421875 3.40625 -6.421875 L 7.140625 -6.421875 C 7.265625 -6.421875 7.328125 -6.359375 7.328125 -6.234375 L 7.328125 -5.203125 C 7.328125 -5.085938 7.265625 -5.03125 7.140625 -5.03125 L 3.390625 -5.03125 C 3.265625 -5.03125 3.203125 -4.976562 3.203125 -4.875 L 3.203125 -1.5625 C 3.203125 -1.5 3.210938 -1.453125 3.234375 -1.421875 C 3.265625 -1.398438 3.304688 -1.390625 3.359375 -1.390625 L 8.84375 -1.390625 C 8.925781 -1.390625 8.984375 -1.375 9.015625 -1.34375 C 9.046875 -1.320312 9.0625 -1.273438 9.0625 -1.203125 L 9.0625 -0.203125 C 9.0625 -0.0664062 8.988281 0 8.84375 0 L 1.609375 0 C 1.503906 0 1.429688 -0.015625 1.390625 -0.046875 C 1.359375 -0.0859375 1.34375 -0.15625 1.34375 -0.25 Z M 1.34375 -11.125 "/></g></g></g><g fill="#ffffff" fill-opacity="1"><g transform="translate(150.413305, 42.706917)"><g><path d="M 1.34375 -11.125 C 1.34375 -11.28125 1.414062 -11.359375 1.5625 -11.359375 L 3 -11.359375 C 3.132812 -11.359375 3.203125 -11.28125 3.203125 -11.125 L 3.203125 -1.5625 C 3.203125 -1.5 3.210938 -1.453125 3.234375 -1.421875 C 3.265625 -1.398438 3.304688 -1.390625 3.359375 -1.390625 L 8.53125 -1.390625 C 8.601562 -1.390625 8.65625 -1.375 8.6875 -1.34375 C 8.726562 -1.320312 8.75 -1.273438 8.75 -1.203125 L 8.75 -0.203125 C 8.75 -0.0664062 8.675781 0 8.53125 0 L 1.609375 0 C 1.515625 0 1.445312 -0.0195312 1.40625 -0.0625 C 1.363281 -0.101562 1.34375 -0.164062 1.34375 -0.25 Z M 1.34375 -11.125 "/></g></g></g><g fill="#ffffff" fill-opacity="1"><g transform="translate(159.749484, 42.706917)"><g><path d="M 9.9375 -7.984375 C 9.9375 -6.890625 9.566406 -6.054688 8.828125 -5.484375 C 8.085938 -4.910156 7.097656 -4.625 5.859375 -4.625 L 3.359375 -4.625 C 3.253906 -4.625 3.203125 -4.570312 3.203125 -4.46875 L 3.203125 -0.265625 C 3.203125 -0.0859375 3.109375 0 2.921875 0 L 1.59375 0 C 1.425781 0 1.34375 -0.078125 1.34375 -0.234375 L 1.34375 -11.125 C 1.34375 -11.207031 1.359375 -11.265625 1.390625 -11.296875 C 1.421875 -11.335938 1.476562 -11.359375 1.5625 -11.359375 L 5.65625 -11.359375 C 6.9375 -11.359375 7.96875 -11.070312 8.75 -10.5 C 9.539062 -9.9375 9.9375 -9.097656 9.9375 -7.984375 Z M 8.03125 -8.03125 C 8.03125 -9.34375 7.203125 -10 5.546875 -10 L 3.4375 -10 C 3.351562 -10 3.289062 -9.984375 3.25 -9.953125 C 3.21875 -9.921875 3.203125 -9.863281 3.203125 -9.78125 L 3.203125 -6.21875 C 3.203125 -6.0625 3.257812 -5.984375 3.375 -5.984375 L 5.65625 -5.984375 C 6.394531 -5.984375 6.972656 -6.15625 7.390625 -6.5 C 7.816406 -6.84375 8.03125 -7.351562 8.03125 -8.03125 Z M 8.03125 -8.03125 "/></g></g></g></svg>