<svg xmlns="http://www.w3.org/2000/svg" xmlns:xlink="http://www.w3.org/1999/xlink" width="320" zoomAndPan="magnify" viewBox="0 0 240 74.999997" height="100" preserveAspectRatio="xMidYMid meet" version="1.0"><defs><clipPath id="5dc97f7819"><path d="M 0.75 0.726562 L 74.507812 0.726562 L 74.507812 74.484375 L 0.75 74.484375 Z M 0.75 0.726562 " clip-rule="nonzero"/></clipPath><clipPath id="578953dc03"><path d="M 37.628906 0.726562 C 17.261719 0.726562 0.75 17.238281 0.75 37.605469 C 0.75 57.972656 17.261719 74.484375 37.628906 74.484375 C 57.996094 74.484375 74.507812 57.972656 74.507812 37.605469 C 74.507812 17.238281 57.996094 0.726562 37.628906 0.726562 " clip-rule="nonzero"/></clipPath><clipPath id="14ead7c487"><path d="M 21 12.515625 L 54 12.515625 L 54 62.667969 L 21 62.667969 Z M 21 12.515625 " clip-rule="nonzero"/></clipPath></defs><g clip-path="url(#5dc97f7819)"><g clip-path="url(#578953dc03)"><path fill="#ffffff" d="M 0.75 0.726562 L 74.507812 0.726562 L 74.507812 74.484375 L 0.75 74.484375 Z M 0.75 0.726562 " fill-opacity="1" fill-rule="nonzero"/></g></g><g clip-path="url(#14ead7c487)"><path fill="#002169" d="M 37.796875 12.515625 C 27.507812 12.515625 21.671875 18.320312 21.503906 26.722656 L 21.503906 27.140625 L 30.589844 27.140625 L 30.589844 26.722656 C 30.789062 23.011719 33.339844 20.617188 37.191406 20.617188 C 41.015625 20.617188 43.5625 22.839844 43.5625 25.980469 C 43.5625 29.117188 42.253906 30.738281 37.929688 33.339844 C 33.304688 36.070312 31.457031 39.109375 31.894531 44.507812 L 31.945312 45.949219 L 40.84375 45.949219 L 40.84375 44.578125 C 40.84375 41.339844 42.085938 39.683594 46.546875 37.085938 C 51.269531 34.28125 53.714844 30.742188 53.714844 25.675781 C 53.714844 17.878906 47.382812 12.515625 37.796875 12.515625 Z M 36.589844 52.21875 C 33.179688 52.21875 31.050781 54.214844 31.050781 57.460938 C 31.050781 60.679688 33.179688 62.667969 36.589844 62.667969 C 39.996094 62.667969 42.097656 60.679688 42.097656 57.460938 C 42.097656 54.214844 40 52.21875 36.589844 52.21875 Z M 36.589844 52.21875 " fill-opacity="1" fill-rule="nonzero"/></g></svg>