<?xml version="1.0" encoding="UTF-8"?>
<svg id="Layer_1" data-name="Layer 1" xmlns="http://www.w3.org/2000/svg" xmlns:xlink="http://www.w3.org/1999/xlink" viewBox="0 0 97.66 97.66">
  <defs>
    <style>
      .cls-1 {
        fill: none;
      }

      .cls-2 {
        clip-path: url(#clippath);
      }

      .cls-3 {
        fill: #002169;
      }

      .cls-4 {
        fill: #fff;
      }

      .cls-5 {
        clip-path: url(#clippath-1);
      }

      .cls-6 {
        clip-path: url(#clippath-2);
      }
    </style>
    <clipPath id="clippath">
      <rect class="cls-1" width="97.66" height="97.66"/>
    </clipPath>
    <clipPath id="clippath-1">
      <path class="cls-1" d="m48.83,0C21.86,0,0,21.86,0,48.83s21.86,48.83,48.83,48.83,48.83-21.86,48.83-48.83S75.8,0,48.83,0"/>
    </clipPath>
    <clipPath id="clippath-2">
      <rect class="cls-1" x="17.02" y="65.28" width="63" height="13.33"/>
    </clipPath>
  </defs>
  <g class="cls-2">
    <g class="cls-5">
      <path class="cls-4" d="m0,0h97.66v97.66H0V0Z"/>
    </g>
  </g>
  <g class="cls-6">
    <path class="cls-3" d="m80.02,72.05v4.68c0,.57-.38.95-.95.95H17.98c-.57,0-.96-.38-.96-.95v-4.68c0-.48.39-.95.96-.95h3.91v-3.72c0-.47.39-.95.95-.95h51.26c.57,0,.96.48.96.95v3.72h4.01c.47,0,.95.38.95.95Z"/>
  </g>
  <path class="cls-3" d="m76.3,29.86l-27.4-13.17c-.29-.1-.57-.1-.86,0l-27.3,13.17c-.29.19-.57.47-.57.86v5.16c0,.47.38.95.95.95h54.7c.47,0,.95-.48.95-.95v-5.16c.1-.39-.19-.77-.47-.86Zm-27.78,2.86c-2.67,0-4.86-2.2-4.86-4.87s2.19-4.87,4.86-4.87,4.87,2.2,4.87,4.87-2.2,4.87-4.87,4.87Z"/>
  <path class="cls-3" d="m24.18,38.64h8.4v25.77h-8.4v-25.77Z"/>
  <path class="cls-3" d="m44.32,38.64h8.4v25.77h-8.4v-25.77Z"/>
  <path class="cls-3" d="m64.56,38.64h8.4v25.77h-8.4v-25.77Z"/>
</svg>