<svg xmlns="http://www.w3.org/2000/svg" xmlns:xlink="http://www.w3.org/1999/xlink" width="320" zoomAndPan="magnify" viewBox="0 0 240 74.999997" height="100" preserveAspectRatio="xMidYMid meet" version="1.0"><defs><clipPath id="1d2e8302ae"><path d="M 2.234375 1.039062 L 75.480469 1.039062 L 75.480469 74.28125 L 2.234375 74.28125 Z M 2.234375 1.039062 " clip-rule="nonzero"/></clipPath><clipPath id="6d89e7b639"><path d="M 38.855469 1.039062 C 18.628906 1.039062 2.234375 17.433594 2.234375 37.660156 C 2.234375 57.886719 18.628906 74.28125 38.855469 74.28125 C 59.082031 74.28125 75.480469 57.886719 75.480469 37.660156 C 75.480469 17.433594 59.082031 1.039062 38.855469 1.039062 " clip-rule="nonzero"/></clipPath><clipPath id="bf04e69c7d"><path d="M 15 50 L 62.25 50 L 62.25 60 L 15 60 Z M 15 50 " clip-rule="nonzero"/></clipPath></defs><g clip-path="url(#1d2e8302ae)"><g clip-path="url(#6d89e7b639)"><path fill="#ffffff" d="M 2.234375 1.039062 L 75.480469 1.039062 L 75.480469 74.28125 L 2.234375 74.28125 Z M 2.234375 1.039062 " fill-opacity="1" fill-rule="nonzero"/></g></g><g clip-path="url(#bf04e69c7d)"><path fill="#002169" d="M 62.25 55.078125 L 62.25 58.585938 C 62.25 59.015625 61.964844 59.300781 61.535156 59.300781 L 15.71875 59.300781 C 15.289062 59.300781 15 59.015625 15 58.585938 L 15 55.078125 C 15 54.71875 15.289062 54.363281 15.71875 54.363281 L 18.652344 54.363281 L 18.652344 51.570312 C 18.652344 51.214844 18.941406 50.855469 19.367188 50.855469 L 57.808594 50.855469 C 58.238281 50.855469 58.527344 51.214844 58.527344 51.570312 L 58.527344 54.363281 L 61.535156 54.363281 C 61.890625 54.363281 62.25 54.648438 62.25 55.078125 Z M 62.25 55.078125 " fill-opacity="1" fill-rule="nonzero"/></g><path fill="#002169" d="M 59.460938 23.433594 L 38.914062 13.554688 C 38.699219 13.480469 38.484375 13.480469 38.269531 13.554688 L 17.792969 23.433594 C 17.578125 23.574219 17.363281 23.789062 17.363281 24.078125 L 17.363281 27.945312 C 17.363281 28.300781 17.648438 28.660156 18.078125 28.660156 L 59.101562 28.660156 C 59.457031 28.660156 59.816406 28.300781 59.816406 27.945312 L 59.816406 24.078125 C 59.890625 23.789062 59.675781 23.503906 59.460938 23.433594 Z M 38.625 25.582031 C 36.621094 25.582031 34.976562 23.933594 34.976562 21.929688 C 34.976562 19.925781 36.621094 18.277344 38.625 18.277344 C 40.628906 18.277344 42.277344 19.925781 42.277344 21.929688 C 42.277344 23.933594 40.628906 25.582031 38.625 25.582031 Z M 38.625 25.582031 " fill-opacity="1" fill-rule="nonzero"/><path fill="#002169" d="M 20.371094 30.019531 L 26.667969 30.019531 L 26.667969 49.347656 L 20.371094 49.347656 Z M 20.371094 30.019531 " fill-opacity="1" fill-rule="nonzero"/><path fill="#002169" d="M 35.472656 30.019531 L 41.773438 30.019531 L 41.773438 49.347656 L 35.472656 49.347656 Z M 35.472656 30.019531 " fill-opacity="1" fill-rule="nonzero"/><path fill="#002169" d="M 50.652344 30.019531 L 56.953125 30.019531 L 56.953125 49.347656 L 50.652344 49.347656 Z M 50.652344 30.019531 " fill-opacity="1" fill-rule="nonzero"/></svg>