<svg xmlns="http://www.w3.org/2000/svg" xmlns:xlink="http://www.w3.org/1999/xlink" width="320" zoomAndPan="magnify" viewBox="0 0 240 74.999997" height="100" preserveAspectRatio="xMidYMid meet" version="1.0"><defs><g/><clipPath id="22c776a93a"><path d="M 2.234375 1.039062 L 75.480469 1.039062 L 75.480469 74.28125 L 2.234375 74.28125 Z M 2.234375 1.039062 " clip-rule="nonzero"/></clipPath><clipPath id="3cdfabe617"><path d="M 38.855469 1.039062 C 18.628906 1.039062 2.234375 17.433594 2.234375 37.660156 C 2.234375 57.886719 18.628906 74.28125 38.855469 74.28125 C 59.082031 74.28125 75.480469 57.886719 75.480469 37.660156 C 75.480469 17.433594 59.082031 1.039062 38.855469 1.039062 " clip-rule="nonzero"/></clipPath><clipPath id="795d0ae687"><path d="M 15 50 L 62.25 50 L 62.25 60 L 15 60 Z M 15 50 " clip-rule="nonzero"/></clipPath></defs><g clip-path="url(#22c776a93a)"><g clip-path="url(#3cdfabe617)"><path fill="#ffffff" d="M 2.234375 1.039062 L 75.480469 1.039062 L 75.480469 74.28125 L 2.234375 74.28125 Z M 2.234375 1.039062 " fill-opacity="1" fill-rule="nonzero"/></g></g><g clip-path="url(#795d0ae687)"><path fill="#002169" d="M 62.25 55.078125 L 62.25 58.585938 C 62.25 59.015625 61.964844 59.300781 61.535156 59.300781 L 15.71875 59.300781 C 15.289062 59.300781 15 59.015625 15 58.585938 L 15 55.078125 C 15 54.71875 15.289062 54.363281 15.71875 54.363281 L 18.652344 54.363281 L 18.652344 51.570312 C 18.652344 51.214844 18.941406 50.855469 19.367188 50.855469 L 57.808594 50.855469 C 58.238281 50.855469 58.527344 51.214844 58.527344 51.570312 L 58.527344 54.363281 L 61.535156 54.363281 C 61.890625 54.363281 62.25 54.648438 62.25 55.078125 Z M 62.25 55.078125 " fill-opacity="1" fill-rule="nonzero"/></g><path fill="#002169" d="M 59.460938 23.433594 L 38.914062 13.554688 C 38.699219 13.480469 38.484375 13.480469 38.269531 13.554688 L 17.792969 23.433594 C 17.578125 23.574219 17.363281 23.789062 17.363281 24.078125 L 17.363281 27.945312 C 17.363281 28.300781 17.648438 28.660156 18.078125 28.660156 L 59.101562 28.660156 C 59.457031 28.660156 59.816406 28.300781 59.816406 27.945312 L 59.816406 24.078125 C 59.890625 23.789062 59.675781 23.503906 59.460938 23.433594 Z M 38.625 25.582031 C 36.621094 25.582031 34.976562 23.933594 34.976562 21.929688 C 34.976562 19.925781 36.621094 18.277344 38.625 18.277344 C 40.628906 18.277344 42.277344 19.925781 42.277344 21.929688 C 42.277344 23.933594 40.628906 25.582031 38.625 25.582031 Z M 38.625 25.582031 " fill-opacity="1" fill-rule="nonzero"/><path fill="#002169" d="M 20.371094 30.019531 L 26.667969 30.019531 L 26.667969 49.347656 L 20.371094 49.347656 Z M 20.371094 30.019531 " fill-opacity="1" fill-rule="nonzero"/><path fill="#002169" d="M 35.472656 30.019531 L 41.773438 30.019531 L 41.773438 49.347656 L 35.472656 49.347656 Z M 35.472656 30.019531 " fill-opacity="1" fill-rule="nonzero"/><path fill="#002169" d="M 50.652344 30.019531 L 56.953125 30.019531 L 56.953125 49.347656 L 50.652344 49.347656 Z M 50.652344 30.019531 " fill-opacity="1" fill-rule="nonzero"/><g fill="#ffffff" fill-opacity="1"><g transform="translate(93.357669, 34.906139)"><g><path d="M 3.046875 -11.546875 C 3.179688 -11.546875 3.25 -11.46875 3.25 -11.3125 L 3.25 -0.296875 C 3.25 -0.179688 3.222656 -0.101562 3.171875 -0.0625 C 3.128906 -0.0195312 3.046875 0 2.921875 0 L 1.65625 0 C 1.550781 0 1.476562 -0.015625 1.4375 -0.046875 C 1.394531 -0.0859375 1.375 -0.15625 1.375 -0.25 L 1.375 -11.3125 C 1.375 -11.46875 1.445312 -11.546875 1.59375 -11.546875 Z M 3.046875 -11.546875 "/></g></g></g><g fill="#ffffff" fill-opacity="1"><g transform="translate(97.995479, 34.906139)"><g><path d="M 10.234375 -11.546875 C 10.347656 -11.546875 10.40625 -11.476562 10.40625 -11.34375 L 10.40625 -0.203125 C 10.40625 -0.140625 10.382812 -0.0859375 10.34375 -0.046875 C 10.300781 -0.015625 10.242188 0 10.171875 0 L 9.171875 0 C 9.085938 0 9.019531 -0.00390625 8.96875 -0.015625 C 8.925781 -0.0351562 8.878906 -0.0820312 8.828125 -0.15625 L 3.140625 -8.3125 C 3.097656 -8.382812 3.054688 -8.414062 3.015625 -8.40625 C 2.984375 -8.394531 2.96875 -8.359375 2.96875 -8.296875 L 2.96875 -0.21875 C 2.96875 -0.0703125 2.882812 0 2.71875 0 L 1.625 0 C 1.457031 0 1.375 -0.0703125 1.375 -0.21875 L 1.375 -11.3125 C 1.375 -11.394531 1.390625 -11.453125 1.421875 -11.484375 C 1.460938 -11.523438 1.523438 -11.546875 1.609375 -11.546875 L 2.8125 -11.546875 C 2.90625 -11.546875 2.972656 -11.53125 3.015625 -11.5 C 3.066406 -11.476562 3.113281 -11.429688 3.15625 -11.359375 L 8.609375 -3.46875 C 8.671875 -3.394531 8.71875 -3.359375 8.75 -3.359375 C 8.8125 -3.359375 8.84375 -3.40625 8.84375 -3.5 L 8.84375 -11.328125 C 8.84375 -11.472656 8.914062 -11.546875 9.0625 -11.546875 Z M 10.234375 -11.546875 "/></g></g></g><g fill="#ffffff" fill-opacity="1"><g transform="translate(109.776777, 34.906139)"><g><path d="M 0.609375 -11.328125 C 0.609375 -11.472656 0.6875 -11.546875 0.84375 -11.546875 L 9.390625 -11.546875 C 9.535156 -11.546875 9.609375 -11.472656 9.609375 -11.328125 L 9.609375 -10.328125 C 9.609375 -10.203125 9.535156 -10.140625 9.390625 -10.140625 L 6.296875 -10.140625 C 6.234375 -10.140625 6.191406 -10.128906 6.171875 -10.109375 C 6.148438 -10.085938 6.140625 -10.050781 6.140625 -10 L 6.140625 -0.234375 C 6.140625 -0.078125 6.066406 0 5.921875 0 L 4.46875 0 C 4.332031 0 4.265625 -0.0703125 4.265625 -0.21875 L 4.265625 -9.96875 C 4.265625 -10.039062 4.25 -10.085938 4.21875 -10.109375 C 4.195312 -10.128906 4.15625 -10.140625 4.09375 -10.140625 L 0.828125 -10.140625 C 0.679688 -10.140625 0.609375 -10.203125 0.609375 -10.328125 Z M 0.609375 -11.328125 "/></g></g></g><g fill="#ffffff" fill-opacity="1"><g transform="translate(119.986202, 34.906139)"><g><path d="M 1.375 -11.3125 C 1.375 -11.394531 1.390625 -11.453125 1.421875 -11.484375 C 1.453125 -11.523438 1.507812 -11.546875 1.59375 -11.546875 L 8.84375 -11.546875 C 8.96875 -11.546875 9.03125 -11.476562 9.03125 -11.34375 L 9.015625 -10.359375 C 9.015625 -10.203125 8.9375 -10.125 8.78125 -10.125 L 3.484375 -10.125 C 3.328125 -10.125 3.25 -10.054688 3.25 -9.921875 L 3.25 -6.71875 C 3.25 -6.582031 3.316406 -6.515625 3.453125 -6.515625 L 7.25 -6.515625 C 7.382812 -6.515625 7.453125 -6.453125 7.453125 -6.328125 L 7.453125 -5.296875 C 7.453125 -5.179688 7.382812 -5.125 7.25 -5.125 L 3.4375 -5.125 C 3.3125 -5.125 3.25 -5.066406 3.25 -4.953125 L 3.25 -1.59375 C 3.25 -1.53125 3.257812 -1.484375 3.28125 -1.453125 C 3.3125 -1.429688 3.351562 -1.421875 3.40625 -1.421875 L 9 -1.421875 C 9.082031 -1.421875 9.140625 -1.40625 9.171875 -1.375 C 9.203125 -1.351562 9.21875 -1.304688 9.21875 -1.234375 L 9.21875 -0.203125 C 9.21875 -0.0664062 9.144531 0 9 0 L 1.640625 0 C 1.535156 0 1.460938 -0.015625 1.421875 -0.046875 C 1.390625 -0.0859375 1.375 -0.15625 1.375 -0.25 Z M 1.375 -11.3125 "/></g></g></g><g fill="#ffffff" fill-opacity="1"><g transform="translate(129.884358, 34.906139)"><g><path d="M 9.96875 -0.328125 C 9.988281 -0.265625 10 -0.222656 10 -0.203125 C 10 -0.148438 9.976562 -0.101562 9.9375 -0.0625 C 9.894531 -0.0195312 9.84375 0 9.78125 0 L 8.28125 0 C 8.15625 0 8.0625 -0.0703125 8 -0.21875 L 6.09375 -4.953125 C 6.050781 -5.078125 5.925781 -5.140625 5.71875 -5.140625 L 3.4375 -5.140625 C 3.3125 -5.140625 3.25 -5.082031 3.25 -4.96875 L 3.25 -0.28125 C 3.25 -0.175781 3.222656 -0.101562 3.171875 -0.0625 C 3.128906 -0.0195312 3.054688 0 2.953125 0 L 1.640625 0 C 1.546875 0 1.476562 -0.0195312 1.4375 -0.0625 C 1.394531 -0.101562 1.375 -0.164062 1.375 -0.25 L 1.375 -11.3125 C 1.375 -11.394531 1.390625 -11.453125 1.421875 -11.484375 C 1.453125 -11.523438 1.507812 -11.546875 1.59375 -11.546875 L 6.078125 -11.546875 C 7.367188 -11.546875 8.363281 -11.28125 9.0625 -10.75 C 9.769531 -10.226562 10.125 -9.476562 10.125 -8.5 C 10.125 -7.695312 9.910156 -7.039062 9.484375 -6.53125 C 9.054688 -6.03125 8.523438 -5.679688 7.890625 -5.484375 C 7.828125 -5.460938 7.804688 -5.398438 7.828125 -5.296875 Z M 5.71875 -6.453125 C 6.539062 -6.453125 7.15625 -6.609375 7.5625 -6.921875 C 7.976562 -7.234375 8.1875 -7.710938 8.1875 -8.359375 C 8.1875 -8.984375 7.992188 -9.445312 7.609375 -9.75 C 7.234375 -10.0625 6.6875 -10.21875 5.96875 -10.21875 L 3.5 -10.21875 C 3.40625 -10.21875 3.335938 -10.203125 3.296875 -10.171875 C 3.265625 -10.148438 3.25 -10.101562 3.25 -10.03125 L 3.25 -6.671875 C 3.25 -6.523438 3.304688 -6.453125 3.421875 -6.453125 Z M 5.71875 -6.453125 "/></g></g></g><g fill="#ffffff" fill-opacity="1"><g transform="translate(140.840813, 34.906139)"><g><path d="M 1.375 -11.3125 C 1.375 -11.46875 1.445312 -11.546875 1.59375 -11.546875 L 3.046875 -11.546875 C 3.179688 -11.546875 3.25 -11.46875 3.25 -11.3125 L 3.25 -1.59375 C 3.25 -1.53125 3.257812 -1.484375 3.28125 -1.453125 C 3.3125 -1.429688 3.351562 -1.421875 3.40625 -1.421875 L 8.671875 -1.421875 C 8.742188 -1.421875 8.796875 -1.40625 8.828125 -1.375 C 8.867188 -1.351562 8.890625 -1.304688 8.890625 -1.234375 L 8.890625 -0.203125 C 8.890625 -0.0664062 8.816406 0 8.671875 0 L 1.640625 0 C 1.546875 0 1.476562 -0.0195312 1.4375 -0.0625 C 1.394531 -0.101562 1.375 -0.164062 1.375 -0.25 Z M 1.375 -11.3125 "/></g></g></g><g fill="#ffffff" fill-opacity="1"><g transform="translate(150.334334, 34.906139)"><g><path d="M 3.046875 -11.546875 C 3.179688 -11.546875 3.25 -11.46875 3.25 -11.3125 L 3.25 -0.296875 C 3.25 -0.179688 3.222656 -0.101562 3.171875 -0.0625 C 3.128906 -0.0195312 3.046875 0 2.921875 0 L 1.65625 0 C 1.550781 0 1.476562 -0.015625 1.4375 -0.046875 C 1.394531 -0.0859375 1.375 -0.15625 1.375 -0.25 L 1.375 -11.3125 C 1.375 -11.46875 1.445312 -11.546875 1.59375 -11.546875 Z M 3.046875 -11.546875 "/></g></g></g><g fill="#ffffff" fill-opacity="1"><g transform="translate(154.972145, 34.906139)"><g><path d="M 1.609375 0 C 1.535156 0 1.476562 -0.0195312 1.4375 -0.0625 C 1.394531 -0.101562 1.375 -0.15625 1.375 -0.21875 L 1.375 -11.28125 C 1.375 -11.457031 1.457031 -11.546875 1.625 -11.546875 L 5.40625 -11.546875 C 6.832031 -11.546875 7.925781 -11.285156 8.6875 -10.765625 C 9.457031 -10.253906 9.84375 -9.515625 9.84375 -8.546875 C 9.84375 -7.929688 9.679688 -7.410156 9.359375 -6.984375 C 9.046875 -6.566406 8.53125 -6.226562 7.8125 -5.96875 C 7.769531 -5.957031 7.75 -5.929688 7.75 -5.890625 C 7.75 -5.859375 7.769531 -5.84375 7.8125 -5.84375 C 8.582031 -5.632812 9.160156 -5.304688 9.546875 -4.859375 C 9.929688 -4.410156 10.125 -3.820312 10.125 -3.09375 C 10.125 -2.0625 9.734375 -1.285156 8.953125 -0.765625 C 8.179688 -0.253906 7.046875 0 5.546875 0 Z M 5.625 -6.515625 C 6.269531 -6.515625 6.820312 -6.660156 7.28125 -6.953125 C 7.738281 -7.242188 7.96875 -7.703125 7.96875 -8.328125 C 7.96875 -8.953125 7.738281 -9.421875 7.28125 -9.734375 C 6.832031 -10.054688 6.21875 -10.21875 5.4375 -10.21875 L 3.484375 -10.21875 C 3.328125 -10.21875 3.25 -10.148438 3.25 -10.015625 L 3.25 -6.734375 C 3.25 -6.585938 3.304688 -6.515625 3.421875 -6.515625 Z M 5.46875 -1.328125 C 7.269531 -1.328125 8.171875 -1.953125 8.171875 -3.203125 C 8.171875 -3.859375 7.9375 -4.347656 7.46875 -4.671875 C 7 -4.992188 6.382812 -5.15625 5.625 -5.15625 L 3.5 -5.15625 C 3.40625 -5.15625 3.335938 -5.140625 3.296875 -5.109375 C 3.265625 -5.078125 3.25 -5.023438 3.25 -4.953125 L 3.25 -1.5625 C 3.25 -1.40625 3.304688 -1.328125 3.421875 -1.328125 Z M 5.46875 -1.328125 "/></g></g></g><g fill="#ffffff" fill-opacity="1"><g transform="translate(165.975283, 34.906139)"><g><path d="M 9.96875 -0.328125 C 9.988281 -0.265625 10 -0.222656 10 -0.203125 C 10 -0.148438 9.976562 -0.101562 9.9375 -0.0625 C 9.894531 -0.0195312 9.84375 0 9.78125 0 L 8.28125 0 C 8.15625 0 8.0625 -0.0703125 8 -0.21875 L 6.09375 -4.953125 C 6.050781 -5.078125 5.925781 -5.140625 5.71875 -5.140625 L 3.4375 -5.140625 C 3.3125 -5.140625 3.25 -5.082031 3.25 -4.96875 L 3.25 -0.28125 C 3.25 -0.175781 3.222656 -0.101562 3.171875 -0.0625 C 3.128906 -0.0195312 3.054688 0 2.953125 0 L 1.640625 0 C 1.546875 0 1.476562 -0.0195312 1.4375 -0.0625 C 1.394531 -0.101562 1.375 -0.164062 1.375 -0.25 L 1.375 -11.3125 C 1.375 -11.394531 1.390625 -11.453125 1.421875 -11.484375 C 1.453125 -11.523438 1.507812 -11.546875 1.59375 -11.546875 L 6.078125 -11.546875 C 7.367188 -11.546875 8.363281 -11.28125 9.0625 -10.75 C 9.769531 -10.226562 10.125 -9.476562 10.125 -8.5 C 10.125 -7.695312 9.910156 -7.039062 9.484375 -6.53125 C 9.054688 -6.03125 8.523438 -5.679688 7.890625 -5.484375 C 7.828125 -5.460938 7.804688 -5.398438 7.828125 -5.296875 Z M 5.71875 -6.453125 C 6.539062 -6.453125 7.15625 -6.609375 7.5625 -6.921875 C 7.976562 -7.234375 8.1875 -7.710938 8.1875 -8.359375 C 8.1875 -8.984375 7.992188 -9.445312 7.609375 -9.75 C 7.234375 -10.0625 6.6875 -10.21875 5.96875 -10.21875 L 3.5 -10.21875 C 3.40625 -10.21875 3.335938 -10.203125 3.296875 -10.171875 C 3.265625 -10.148438 3.25 -10.101562 3.25 -10.03125 L 3.25 -6.671875 C 3.25 -6.523438 3.304688 -6.453125 3.421875 -6.453125 Z M 5.71875 -6.453125 "/></g></g></g><g fill="#ffffff" fill-opacity="1"><g transform="translate(176.931738, 34.906139)"><g><path d="M 0.828125 0 C 0.703125 0 0.640625 -0.0625 0.640625 -0.1875 L 0.671875 -0.328125 L 4.640625 -11.296875 C 4.671875 -11.390625 4.710938 -11.453125 4.765625 -11.484375 C 4.816406 -11.523438 4.890625 -11.546875 4.984375 -11.546875 L 6.546875 -11.546875 C 6.742188 -11.546875 6.875 -11.457031 6.9375 -11.28125 L 10.875 -0.3125 C 10.882812 -0.289062 10.890625 -0.253906 10.890625 -0.203125 C 10.890625 -0.0664062 10.832031 0 10.71875 0 L 9.25 0 C 9.113281 0 9.023438 -0.0625 8.984375 -0.1875 L 7.984375 -2.953125 C 7.960938 -3.003906 7.941406 -3.039062 7.921875 -3.0625 C 7.898438 -3.082031 7.859375 -3.09375 7.796875 -3.09375 L 3.484375 -3.09375 C 3.390625 -3.09375 3.328125 -3.050781 3.296875 -2.96875 L 2.28125 -0.15625 C 2.25 -0.0507812 2.160156 0 2.015625 0 Z M 7.3125 -4.5625 C 7.382812 -4.5625 7.425781 -4.578125 7.4375 -4.609375 C 7.457031 -4.648438 7.457031 -4.707031 7.4375 -4.78125 L 5.765625 -9.453125 C 5.734375 -9.523438 5.695312 -9.5625 5.65625 -9.5625 C 5.613281 -9.5625 5.578125 -9.519531 5.546875 -9.4375 L 3.8125 -4.765625 L 3.796875 -4.671875 C 3.796875 -4.597656 3.84375 -4.5625 3.9375 -4.5625 Z M 7.3125 -4.5625 "/></g></g></g><g fill="#ffffff" fill-opacity="1"><g transform="translate(188.464026, 34.906139)"><g><path d="M 9.96875 -0.328125 C 9.988281 -0.265625 10 -0.222656 10 -0.203125 C 10 -0.148438 9.976562 -0.101562 9.9375 -0.0625 C 9.894531 -0.0195312 9.84375 0 9.78125 0 L 8.28125 0 C 8.15625 0 8.0625 -0.0703125 8 -0.21875 L 6.09375 -4.953125 C 6.050781 -5.078125 5.925781 -5.140625 5.71875 -5.140625 L 3.4375 -5.140625 C 3.3125 -5.140625 3.25 -5.082031 3.25 -4.96875 L 3.25 -0.28125 C 3.25 -0.175781 3.222656 -0.101562 3.171875 -0.0625 C 3.128906 -0.0195312 3.054688 0 2.953125 0 L 1.640625 0 C 1.546875 0 1.476562 -0.0195312 1.4375 -0.0625 C 1.394531 -0.101562 1.375 -0.164062 1.375 -0.25 L 1.375 -11.3125 C 1.375 -11.394531 1.390625 -11.453125 1.421875 -11.484375 C 1.453125 -11.523438 1.507812 -11.546875 1.59375 -11.546875 L 6.078125 -11.546875 C 7.367188 -11.546875 8.363281 -11.28125 9.0625 -10.75 C 9.769531 -10.226562 10.125 -9.476562 10.125 -8.5 C 10.125 -7.695312 9.910156 -7.039062 9.484375 -6.53125 C 9.054688 -6.03125 8.523438 -5.679688 7.890625 -5.484375 C 7.828125 -5.460938 7.804688 -5.398438 7.828125 -5.296875 Z M 5.71875 -6.453125 C 6.539062 -6.453125 7.15625 -6.609375 7.5625 -6.921875 C 7.976562 -7.234375 8.1875 -7.710938 8.1875 -8.359375 C 8.1875 -8.984375 7.992188 -9.445312 7.609375 -9.75 C 7.234375 -10.0625 6.6875 -10.21875 5.96875 -10.21875 L 3.5 -10.21875 C 3.40625 -10.21875 3.335938 -10.203125 3.296875 -10.171875 C 3.265625 -10.148438 3.25 -10.101562 3.25 -10.03125 L 3.25 -6.671875 C 3.25 -6.523438 3.304688 -6.453125 3.421875 -6.453125 Z M 5.71875 -6.453125 "/></g></g></g><g fill="#ffffff" fill-opacity="1"><g transform="translate(199.420481, 34.906139)"><g><path d="M 10.015625 -11.546875 C 10.097656 -11.546875 10.15625 -11.519531 10.1875 -11.46875 C 10.21875 -11.425781 10.210938 -11.367188 10.171875 -11.296875 L 6.484375 -5.171875 C 6.441406 -5.097656 6.410156 -5.023438 6.390625 -4.953125 C 6.378906 -4.878906 6.375 -4.75 6.375 -4.5625 L 6.375 -0.3125 C 6.375 -0.195312 6.347656 -0.113281 6.296875 -0.0625 C 6.242188 -0.0195312 6.15625 0 6.03125 0 L 4.78125 0 C 4.601562 0 4.515625 -0.0859375 4.515625 -0.265625 L 4.515625 -4.546875 C 4.515625 -4.648438 4.503906 -4.726562 4.484375 -4.78125 C 4.460938 -4.84375 4.425781 -4.921875 4.375 -5.015625 L 0.640625 -11.25 C 0.609375 -11.300781 0.59375 -11.347656 0.59375 -11.390625 C 0.59375 -11.492188 0.671875 -11.546875 0.828125 -11.546875 L 2.3125 -11.546875 C 2.414062 -11.546875 2.488281 -11.53125 2.53125 -11.5 C 2.582031 -11.46875 2.632812 -11.410156 2.6875 -11.328125 L 5.40625 -6.640625 C 5.46875 -6.523438 5.523438 -6.46875 5.578125 -6.46875 C 5.640625 -6.46875 5.691406 -6.515625 5.734375 -6.609375 L 8.421875 -11.328125 C 8.460938 -11.421875 8.503906 -11.476562 8.546875 -11.5 C 8.597656 -11.53125 8.675781 -11.546875 8.78125 -11.546875 Z M 10.015625 -11.546875 "/></g></g></g><g fill="#ffffff" fill-opacity="1"><g transform="translate(93.357669, 50.469176)"><g><path d="M 1.375 -11.3125 C 1.375 -11.46875 1.445312 -11.546875 1.59375 -11.546875 L 3.046875 -11.546875 C 3.179688 -11.546875 3.25 -11.46875 3.25 -11.3125 L 3.25 -1.59375 C 3.25 -1.53125 3.257812 -1.484375 3.28125 -1.453125 C 3.3125 -1.429688 3.351562 -1.421875 3.40625 -1.421875 L 8.671875 -1.421875 C 8.742188 -1.421875 8.796875 -1.40625 8.828125 -1.375 C 8.867188 -1.351562 8.890625 -1.304688 8.890625 -1.234375 L 8.890625 -0.203125 C 8.890625 -0.0664062 8.816406 0 8.671875 0 L 1.640625 0 C 1.546875 0 1.476562 -0.0195312 1.4375 -0.0625 C 1.394531 -0.101562 1.375 -0.164062 1.375 -0.25 Z M 1.375 -11.3125 "/></g></g></g><g fill="#ffffff" fill-opacity="1"><g transform="translate(102.851191, 50.469176)"><g><path d="M 5.96875 0.15625 C 4.925781 0.15625 4.023438 -0.0703125 3.265625 -0.53125 C 2.503906 -1 1.921875 -1.671875 1.515625 -2.546875 C 1.117188 -3.429688 0.921875 -4.492188 0.921875 -5.734375 C 0.921875 -6.972656 1.125 -8.039062 1.53125 -8.9375 C 1.9375 -9.832031 2.519531 -10.515625 3.28125 -10.984375 C 4.050781 -11.460938 4.953125 -11.703125 5.984375 -11.703125 C 7.015625 -11.703125 7.90625 -11.460938 8.65625 -10.984375 C 9.40625 -10.515625 9.984375 -9.832031 10.390625 -8.9375 C 10.804688 -8.050781 11.015625 -6.988281 11.015625 -5.75 C 11.015625 -4.507812 10.8125 -3.445312 10.40625 -2.5625 C 10 -1.6875 9.414062 -1.015625 8.65625 -0.546875 C 7.90625 -0.078125 7.007812 0.15625 5.96875 0.15625 Z M 5.984375 -1.234375 C 7.023438 -1.234375 7.796875 -1.59375 8.296875 -2.3125 C 8.804688 -3.039062 9.0625 -4.179688 9.0625 -5.734375 C 9.0625 -7.296875 8.804688 -8.453125 8.296875 -9.203125 C 7.785156 -9.953125 7.015625 -10.328125 5.984375 -10.328125 C 4.953125 -10.328125 4.175781 -9.953125 3.65625 -9.203125 C 3.132812 -8.453125 2.875 -7.296875 2.875 -5.734375 C 2.875 -4.191406 3.128906 -3.054688 3.640625 -2.328125 C 4.160156 -1.597656 4.941406 -1.234375 5.984375 -1.234375 Z M 5.984375 -1.234375 "/></g></g></g><g fill="#ffffff" fill-opacity="1"><g transform="translate(114.788133, 50.469176)"><g><path d="M 0.828125 0 C 0.703125 0 0.640625 -0.0625 0.640625 -0.1875 L 0.671875 -0.328125 L 4.640625 -11.296875 C 4.671875 -11.390625 4.710938 -11.453125 4.765625 -11.484375 C 4.816406 -11.523438 4.890625 -11.546875 4.984375 -11.546875 L 6.546875 -11.546875 C 6.742188 -11.546875 6.875 -11.457031 6.9375 -11.28125 L 10.875 -0.3125 C 10.882812 -0.289062 10.890625 -0.253906 10.890625 -0.203125 C 10.890625 -0.0664062 10.832031 0 10.71875 0 L 9.25 0 C 9.113281 0 9.023438 -0.0625 8.984375 -0.1875 L 7.984375 -2.953125 C 7.960938 -3.003906 7.941406 -3.039062 7.921875 -3.0625 C 7.898438 -3.082031 7.859375 -3.09375 7.796875 -3.09375 L 3.484375 -3.09375 C 3.390625 -3.09375 3.328125 -3.050781 3.296875 -2.96875 L 2.28125 -0.15625 C 2.25 -0.0507812 2.160156 0 2.015625 0 Z M 7.3125 -4.5625 C 7.382812 -4.5625 7.425781 -4.578125 7.4375 -4.609375 C 7.457031 -4.648438 7.457031 -4.707031 7.4375 -4.78125 L 5.765625 -9.453125 C 5.734375 -9.523438 5.695312 -9.5625 5.65625 -9.5625 C 5.613281 -9.5625 5.578125 -9.519531 5.546875 -9.4375 L 3.8125 -4.765625 L 3.796875 -4.671875 C 3.796875 -4.597656 3.84375 -4.5625 3.9375 -4.5625 Z M 7.3125 -4.5625 "/></g></g></g><g fill="#ffffff" fill-opacity="1"><g transform="translate(126.32042, 50.469176)"><g><path d="M 10.234375 -11.546875 C 10.347656 -11.546875 10.40625 -11.476562 10.40625 -11.34375 L 10.40625 -0.203125 C 10.40625 -0.140625 10.382812 -0.0859375 10.34375 -0.046875 C 10.300781 -0.015625 10.242188 0 10.171875 0 L 9.171875 0 C 9.085938 0 9.019531 -0.00390625 8.96875 -0.015625 C 8.925781 -0.0351562 8.878906 -0.0820312 8.828125 -0.15625 L 3.140625 -8.3125 C 3.097656 -8.382812 3.054688 -8.414062 3.015625 -8.40625 C 2.984375 -8.394531 2.96875 -8.359375 2.96875 -8.296875 L 2.96875 -0.21875 C 2.96875 -0.0703125 2.882812 0 2.71875 0 L 1.625 0 C 1.457031 0 1.375 -0.0703125 1.375 -0.21875 L 1.375 -11.3125 C 1.375 -11.394531 1.390625 -11.453125 1.421875 -11.484375 C 1.460938 -11.523438 1.523438 -11.546875 1.609375 -11.546875 L 2.8125 -11.546875 C 2.90625 -11.546875 2.972656 -11.53125 3.015625 -11.5 C 3.066406 -11.476562 3.113281 -11.429688 3.15625 -11.359375 L 8.609375 -3.46875 C 8.671875 -3.394531 8.71875 -3.359375 8.75 -3.359375 C 8.8125 -3.359375 8.84375 -3.40625 8.84375 -3.5 L 8.84375 -11.328125 C 8.84375 -11.472656 8.914062 -11.546875 9.0625 -11.546875 Z M 10.234375 -11.546875 "/></g></g></g></svg>