<svg xmlns="http://www.w3.org/2000/svg" xmlns:xlink="http://www.w3.org/1999/xlink" width="320" zoomAndPan="magnify" viewBox="0 0 240 74.999997" height="100" preserveAspectRatio="xMidYMid meet" version="1.0"><defs><g/><clipPath id="60557c36db"><path d="M 0 0.847656 L 73.304688 0.847656 L 73.304688 74.152344 L 0 74.152344 Z M 0 0.847656 " clip-rule="nonzero"/></clipPath><clipPath id="72c04365ce"><path d="M 36.652344 0.847656 C 16.410156 0.847656 0 17.257812 0 37.5 C 0 57.742188 16.410156 74.152344 36.652344 74.152344 C 56.894531 74.152344 73.304688 57.742188 73.304688 37.5 C 73.304688 17.257812 56.894531 0.847656 36.652344 0.847656 " clip-rule="nonzero"/></clipPath></defs><g clip-path="url(#60557c36db)"><g clip-path="url(#72c04365ce)"><path fill="#ffffff" d="M 0 0.847656 L 73.304688 0.847656 L 73.304688 74.152344 L 0 74.152344 Z M 0 0.847656 " fill-opacity="1" fill-rule="nonzero"/></g></g><g fill="#002169" fill-opacity="1"><g transform="translate(30.727972, 53.53002)"><g><path d="M 10.09375 -25.265625 C 10.09375 -24.847656 9.976562 -24.539062 9.75 -24.34375 C 9.53125 -24.144531 9.1875 -24.046875 8.71875 -24.046875 L 2.8125 -24.046875 C 2.414062 -24.046875 2.132812 -24.132812 1.96875 -24.3125 C 1.800781 -24.5 1.71875 -24.773438 1.71875 -25.140625 L 1.71875 -30.125 C 1.71875 -30.769531 1.984375 -31.09375 2.515625 -31.09375 L 9.34375 -31.09375 C 9.570312 -31.09375 9.753906 -31.015625 9.890625 -30.859375 C 10.023438 -30.710938 10.09375 -30.5 10.09375 -30.21875 Z M 10.09375 -1.21875 C 10.09375 -0.769531 9.976562 -0.453125 9.75 -0.265625 C 9.53125 -0.0859375 9.1875 0 8.71875 0 L 2.8125 0 C 2.382812 0 2.09375 -0.0820312 1.9375 -0.25 C 1.789062 -0.414062 1.71875 -0.679688 1.71875 -1.046875 L 1.71875 -21.25 C 1.71875 -21.882812 1.984375 -22.203125 2.515625 -22.203125 L 9.34375 -22.203125 C 9.570312 -22.203125 9.753906 -22.125 9.890625 -21.96875 C 10.023438 -21.820312 10.09375 -21.625 10.09375 -21.375 Z M 10.09375 -1.21875 "/></g></g></g><g fill="#ffffff" fill-opacity="1"><g transform="translate(95.076472, 39.433218)"><g><path d="M 1.59375 0 C 1.425781 0 1.34375 -0.0859375 1.34375 -0.265625 L 1.34375 -11.109375 C 1.34375 -11.191406 1.359375 -11.25 1.390625 -11.28125 C 1.421875 -11.320312 1.476562 -11.34375 1.5625 -11.34375 L 3.5625 -11.34375 C 3.65625 -11.34375 3.71875 -11.328125 3.75 -11.296875 C 3.789062 -11.273438 3.820312 -11.226562 3.84375 -11.15625 L 6.90625 -3.125 C 6.9375 -3.039062 6.972656 -3 7.015625 -3 C 7.046875 -3 7.085938 -3.046875 7.140625 -3.140625 L 10.140625 -11.09375 C 10.203125 -11.257812 10.296875 -11.34375 10.421875 -11.34375 L 12.5 -11.34375 C 12.632812 -11.34375 12.703125 -11.265625 12.703125 -11.109375 L 12.703125 -0.28125 C 12.703125 -0.175781 12.679688 -0.101562 12.640625 -0.0625 C 12.597656 -0.0195312 12.523438 0 12.421875 0 L 11.109375 0 C 11.015625 0 10.945312 -0.015625 10.90625 -0.046875 C 10.863281 -0.0859375 10.84375 -0.15625 10.84375 -0.25 L 10.84375 -8.625 C 10.84375 -8.664062 10.832031 -8.6875 10.8125 -8.6875 C 10.789062 -8.6875 10.773438 -8.660156 10.765625 -8.609375 L 7.609375 -0.21875 C 7.554688 -0.0703125 7.457031 0 7.3125 0 L 6.40625 0 C 6.25 0 6.140625 -0.0664062 6.078125 -0.203125 L 3 -8.515625 C 2.976562 -8.585938 2.953125 -8.617188 2.921875 -8.609375 C 2.898438 -8.609375 2.890625 -8.578125 2.890625 -8.515625 L 2.890625 -0.21875 C 2.890625 -0.132812 2.875 -0.078125 2.84375 -0.046875 C 2.8125 -0.015625 2.75 0 2.65625 0 Z M 1.59375 0 "/></g></g></g><g fill="#ffffff" fill-opacity="1"><g transform="translate(109.122635, 39.433218)"><g><path d="M 5.875 0.15625 C 4.84375 0.15625 3.953125 -0.0664062 3.203125 -0.515625 C 2.460938 -0.972656 1.894531 -1.632812 1.5 -2.5 C 1.101562 -3.375 0.90625 -4.414062 0.90625 -5.625 C 0.90625 -6.84375 1.101562 -7.890625 1.5 -8.765625 C 1.90625 -9.648438 2.484375 -10.320312 3.234375 -10.78125 C 3.984375 -11.25 4.867188 -11.484375 5.890625 -11.484375 C 6.890625 -11.484375 7.757812 -11.25 8.5 -10.78125 C 9.238281 -10.320312 9.804688 -9.65625 10.203125 -8.78125 C 10.609375 -7.90625 10.8125 -6.859375 10.8125 -5.640625 C 10.8125 -4.421875 10.613281 -3.378906 10.21875 -2.515625 C 9.820312 -1.648438 9.25 -0.988281 8.5 -0.53125 C 7.757812 -0.0703125 6.882812 0.15625 5.875 0.15625 Z M 5.890625 -1.203125 C 6.898438 -1.203125 7.648438 -1.554688 8.140625 -2.265625 C 8.640625 -2.984375 8.890625 -4.101562 8.890625 -5.625 C 8.890625 -7.164062 8.640625 -8.300781 8.140625 -9.03125 C 7.640625 -9.769531 6.890625 -10.140625 5.890625 -10.140625 C 4.867188 -10.140625 4.101562 -9.769531 3.59375 -9.03125 C 3.082031 -8.300781 2.828125 -7.164062 2.828125 -5.625 C 2.828125 -4.113281 3.078125 -3 3.578125 -2.28125 C 4.085938 -1.5625 4.859375 -1.203125 5.890625 -1.203125 Z M 5.890625 -1.203125 "/></g></g></g><g fill="#ffffff" fill-opacity="1"><g transform="translate(120.845611, 39.433218)"><g><path d="M 9.796875 -0.328125 C 9.816406 -0.265625 9.828125 -0.222656 9.828125 -0.203125 C 9.828125 -0.148438 9.804688 -0.101562 9.765625 -0.0625 C 9.722656 -0.0195312 9.671875 0 9.609375 0 L 8.125 0 C 8.007812 0 7.921875 -0.0703125 7.859375 -0.21875 L 5.984375 -4.859375 C 5.941406 -4.984375 5.816406 -5.046875 5.609375 -5.046875 L 3.375 -5.046875 C 3.25 -5.046875 3.1875 -4.988281 3.1875 -4.875 L 3.1875 -0.28125 C 3.1875 -0.175781 3.164062 -0.101562 3.125 -0.0625 C 3.082031 -0.0195312 3.007812 0 2.90625 0 L 1.609375 0 C 1.515625 0 1.445312 -0.0195312 1.40625 -0.0625 C 1.363281 -0.101562 1.34375 -0.164062 1.34375 -0.25 L 1.34375 -11.109375 C 1.34375 -11.191406 1.359375 -11.25 1.390625 -11.28125 C 1.421875 -11.320312 1.476562 -11.34375 1.5625 -11.34375 L 5.96875 -11.34375 C 7.238281 -11.34375 8.21875 -11.082031 8.90625 -10.5625 C 9.601562 -10.050781 9.953125 -9.3125 9.953125 -8.34375 C 9.953125 -7.5625 9.738281 -6.921875 9.3125 -6.421875 C 8.894531 -5.921875 8.375 -5.570312 7.75 -5.375 C 7.6875 -5.351562 7.664062 -5.296875 7.6875 -5.203125 Z M 5.609375 -6.34375 C 6.421875 -6.34375 7.023438 -6.492188 7.421875 -6.796875 C 7.828125 -7.109375 8.03125 -7.578125 8.03125 -8.203125 C 8.03125 -8.816406 7.84375 -9.273438 7.46875 -9.578125 C 7.101562 -9.890625 6.570312 -10.046875 5.875 -10.046875 L 3.4375 -10.046875 C 3.34375 -10.046875 3.273438 -10.03125 3.234375 -10 C 3.203125 -9.976562 3.1875 -9.929688 3.1875 -9.859375 L 3.1875 -6.5625 C 3.1875 -6.414062 3.242188 -6.34375 3.359375 -6.34375 Z M 5.609375 -6.34375 "/></g></g></g><g fill="#ffffff" fill-opacity="1"><g transform="translate(131.605675, 39.433218)"><g><path d="M 1.34375 -11.109375 C 1.34375 -11.191406 1.359375 -11.25 1.390625 -11.28125 C 1.421875 -11.320312 1.476562 -11.34375 1.5625 -11.34375 L 8.6875 -11.34375 C 8.800781 -11.34375 8.859375 -11.273438 8.859375 -11.140625 L 8.84375 -10.171875 C 8.84375 -10.023438 8.769531 -9.953125 8.625 -9.953125 L 3.421875 -9.953125 C 3.265625 -9.953125 3.1875 -9.882812 3.1875 -9.75 L 3.1875 -6.59375 C 3.1875 -6.46875 3.253906 -6.40625 3.390625 -6.40625 L 7.125 -6.40625 C 7.25 -6.40625 7.3125 -6.34375 7.3125 -6.21875 L 7.3125 -5.203125 C 7.3125 -5.085938 7.25 -5.03125 7.125 -5.03125 L 3.375 -5.03125 C 3.25 -5.03125 3.1875 -4.972656 3.1875 -4.859375 L 3.1875 -1.5625 C 3.1875 -1.5 3.195312 -1.453125 3.21875 -1.421875 C 3.25 -1.398438 3.289062 -1.390625 3.34375 -1.390625 L 8.828125 -1.390625 C 8.910156 -1.390625 8.96875 -1.375 9 -1.34375 C 9.03125 -1.320312 9.046875 -1.273438 9.046875 -1.203125 L 9.046875 -0.203125 C 9.046875 -0.0664062 8.972656 0 8.828125 0 L 1.609375 0 C 1.503906 0 1.429688 -0.015625 1.390625 -0.046875 C 1.359375 -0.0859375 1.34375 -0.15625 1.34375 -0.25 Z M 1.34375 -11.109375 "/></g></g></g><g fill="#ffffff" fill-opacity="1"><g transform="translate(141.326411, 39.433218)"><g/></g></g><g fill="#ffffff" fill-opacity="1"><g transform="translate(144.566662, 39.433218)"><g><path d="M 3 -11.34375 C 3.125 -11.34375 3.1875 -11.265625 3.1875 -11.109375 L 3.1875 -0.296875 C 3.1875 -0.179688 3.164062 -0.101562 3.125 -0.0625 C 3.082031 -0.0195312 3 0 2.875 0 L 1.625 0 C 1.519531 0 1.445312 -0.015625 1.40625 -0.046875 C 1.363281 -0.0859375 1.34375 -0.15625 1.34375 -0.25 L 1.34375 -11.109375 C 1.34375 -11.265625 1.414062 -11.34375 1.5625 -11.34375 Z M 3 -11.34375 "/></g></g></g><g fill="#ffffff" fill-opacity="1"><g transform="translate(149.121341, 39.433218)"><g><path d="M 10.0625 -11.34375 C 10.164062 -11.34375 10.21875 -11.273438 10.21875 -11.140625 L 10.21875 -0.203125 C 10.21875 -0.140625 10.195312 -0.0859375 10.15625 -0.046875 C 10.113281 -0.015625 10.0625 0 10 0 L 9 0 C 8.914062 0 8.847656 -0.00390625 8.796875 -0.015625 C 8.753906 -0.0351562 8.710938 -0.0820312 8.671875 -0.15625 L 3.09375 -8.15625 C 3.050781 -8.226562 3.007812 -8.257812 2.96875 -8.25 C 2.9375 -8.238281 2.921875 -8.203125 2.921875 -8.140625 L 2.921875 -0.21875 C 2.921875 -0.0703125 2.835938 0 2.671875 0 L 1.59375 0 C 1.425781 0 1.34375 -0.0703125 1.34375 -0.21875 L 1.34375 -11.109375 C 1.34375 -11.191406 1.359375 -11.25 1.390625 -11.28125 C 1.429688 -11.320312 1.492188 -11.34375 1.578125 -11.34375 L 2.765625 -11.34375 C 2.859375 -11.34375 2.925781 -11.328125 2.96875 -11.296875 C 3.019531 -11.273438 3.066406 -11.226562 3.109375 -11.15625 L 8.453125 -3.40625 C 8.515625 -3.332031 8.5625 -3.296875 8.59375 -3.296875 C 8.65625 -3.296875 8.6875 -3.34375 8.6875 -3.4375 L 8.6875 -11.125 C 8.6875 -11.269531 8.753906 -11.34375 8.890625 -11.34375 Z M 10.0625 -11.34375 "/></g></g></g><g fill="#ffffff" fill-opacity="1"><g transform="translate(160.691464, 39.433218)"><g><path d="M 1.34375 -11.109375 C 1.34375 -11.265625 1.414062 -11.34375 1.5625 -11.34375 L 8.546875 -11.34375 C 8.660156 -11.34375 8.71875 -11.273438 8.71875 -11.140625 L 8.703125 -10.171875 C 8.703125 -10.023438 8.628906 -9.953125 8.484375 -9.953125 L 3.421875 -9.953125 C 3.335938 -9.953125 3.273438 -9.9375 3.234375 -9.90625 C 3.203125 -9.875 3.1875 -9.820312 3.1875 -9.75 L 3.1875 -6.421875 C 3.1875 -6.296875 3.253906 -6.234375 3.390625 -6.234375 L 7.234375 -6.234375 C 7.347656 -6.234375 7.40625 -6.171875 7.40625 -6.046875 L 7.40625 -5.046875 C 7.40625 -4.984375 7.390625 -4.9375 7.359375 -4.90625 C 7.335938 -4.882812 7.296875 -4.875 7.234375 -4.875 L 3.375 -4.875 C 3.25 -4.875 3.1875 -4.8125 3.1875 -4.6875 L 3.1875 -0.25 C 3.1875 -0.15625 3.164062 -0.0859375 3.125 -0.046875 C 3.09375 -0.015625 3.023438 0 2.921875 0 L 1.609375 0 C 1.503906 0 1.429688 -0.015625 1.390625 -0.046875 C 1.359375 -0.0859375 1.34375 -0.15625 1.34375 -0.25 Z M 1.34375 -11.109375 "/></g></g></g><g fill="#ffffff" fill-opacity="1"><g transform="translate(170.030093, 39.433218)"><g><path d="M 5.875 0.15625 C 4.84375 0.15625 3.953125 -0.0664062 3.203125 -0.515625 C 2.460938 -0.972656 1.894531 -1.632812 1.5 -2.5 C 1.101562 -3.375 0.90625 -4.414062 0.90625 -5.625 C 0.90625 -6.84375 1.101562 -7.890625 1.5 -8.765625 C 1.90625 -9.648438 2.484375 -10.320312 3.234375 -10.78125 C 3.984375 -11.25 4.867188 -11.484375 5.890625 -11.484375 C 6.890625 -11.484375 7.757812 -11.25 8.5 -10.78125 C 9.238281 -10.320312 9.804688 -9.65625 10.203125 -8.78125 C 10.609375 -7.90625 10.8125 -6.859375 10.8125 -5.640625 C 10.8125 -4.421875 10.613281 -3.378906 10.21875 -2.515625 C 9.820312 -1.648438 9.25 -0.988281 8.5 -0.53125 C 7.757812 -0.0703125 6.882812 0.15625 5.875 0.15625 Z M 5.890625 -1.203125 C 6.898438 -1.203125 7.648438 -1.554688 8.140625 -2.265625 C 8.640625 -2.984375 8.890625 -4.101562 8.890625 -5.625 C 8.890625 -7.164062 8.640625 -8.300781 8.140625 -9.03125 C 7.640625 -9.769531 6.890625 -10.140625 5.890625 -10.140625 C 4.867188 -10.140625 4.101562 -9.769531 3.59375 -9.03125 C 3.082031 -8.300781 2.828125 -7.164062 2.828125 -5.625 C 2.828125 -4.113281 3.078125 -3 3.578125 -2.28125 C 4.085938 -1.5625 4.859375 -1.203125 5.890625 -1.203125 Z M 5.890625 -1.203125 "/></g></g></g></svg>