<svg xmlns="http://www.w3.org/2000/svg" xmlns:xlink="http://www.w3.org/1999/xlink" width="320" zoomAndPan="magnify" viewBox="0 0 240 74.999997" height="100" preserveAspectRatio="xMidYMid meet" version="1.0"><defs><g/><clipPath id="056cc63af7"><path d="M 0 0.847656 L 73.304688 0.847656 L 73.304688 74.152344 L 0 74.152344 Z M 0 0.847656 " clip-rule="nonzero"/></clipPath><clipPath id="5613d51ca4"><path d="M 36.652344 0.847656 C 16.410156 0.847656 0 17.257812 0 37.5 C 0 57.742188 16.410156 74.152344 36.652344 74.152344 C 56.894531 74.152344 73.304688 57.742188 73.304688 37.5 C 73.304688 17.257812 56.894531 0.847656 36.652344 0.847656 " clip-rule="nonzero"/></clipPath></defs><g clip-path="url(#056cc63af7)"><g clip-path="url(#5613d51ca4)"><path fill="#ffffff" d="M 0 0.847656 L 73.304688 0.847656 L 73.304688 74.152344 L 0 74.152344 Z M 0 0.847656 " fill-opacity="1" fill-rule="nonzero"/></g></g><g fill="#002169" fill-opacity="1"><g transform="translate(30.727972, 53.53002)"><g><path d="M 10.09375 -25.265625 C 10.09375 -24.847656 9.976562 -24.539062 9.75 -24.34375 C 9.53125 -24.144531 9.1875 -24.046875 8.71875 -24.046875 L 2.8125 -24.046875 C 2.414062 -24.046875 2.132812 -24.132812 1.96875 -24.3125 C 1.800781 -24.5 1.71875 -24.773438 1.71875 -25.140625 L 1.71875 -30.125 C 1.71875 -30.769531 1.984375 -31.09375 2.515625 -31.09375 L 9.34375 -31.09375 C 9.570312 -31.09375 9.753906 -31.015625 9.890625 -30.859375 C 10.023438 -30.710938 10.09375 -30.5 10.09375 -30.21875 Z M 10.09375 -1.21875 C 10.09375 -0.769531 9.976562 -0.453125 9.75 -0.265625 C 9.53125 -0.0859375 9.1875 0 8.71875 0 L 2.8125 0 C 2.382812 0 2.09375 -0.0820312 1.9375 -0.25 C 1.789062 -0.414062 1.71875 -0.679688 1.71875 -1.046875 L 1.71875 -21.25 C 1.71875 -21.882812 1.984375 -22.203125 2.515625 -22.203125 L 9.34375 -22.203125 C 9.570312 -22.203125 9.753906 -22.125 9.890625 -21.96875 C 10.023438 -21.820312 10.09375 -21.625 10.09375 -21.375 Z M 10.09375 -1.21875 "/></g></g></g></svg>