<?xml version="1.0" encoding="UTF-8"?>
<svg id="Layer_1" data-name="Layer 1" xmlns="http://www.w3.org/2000/svg" xmlns:xlink="http://www.w3.org/1999/xlink" viewBox="0 0 97.56 97.56">
  <defs>
    <style>
      .cls-1 {
        fill: none;
      }

      .cls-2 {
        clip-path: url(#clippath);
      }

      .cls-3 {
        fill: #002169;
      }

      .cls-4 {
        fill: #fff;
      }

      .cls-5 {
        clip-path: url(#clippath-1);
      }

      .cls-6 {
        clip-path: url(#clippath-2);
      }
    </style>
    <clipPath id="clippath">
      <rect class="cls-1" width="97.56" height="97.56"/>
    </clipPath>
    <clipPath id="clippath-1">
      <path class="cls-1" d="m48.78,0C21.84,0,0,21.84,0,48.78s21.84,48.78,48.78,48.78,48.78-21.84,48.78-48.78S75.72,0,48.78,0"/>
    </clipPath>
    <clipPath id="clippath-2">
      <rect class="cls-1" x="11.34" y="11.34" width="74.5" height="74.5"/>
    </clipPath>
  </defs>
  <g class="cls-2">
    <g class="cls-5">
      <path class="cls-4" d="m0,0h97.56v97.56H0V0Z"/>
    </g>
  </g>
  <g class="cls-6">
    <path class="cls-3" d="m85.84,48.59c0-9.03-3.23-17.32-8.6-23.78-.04-.06-.07-.11-.11-.16-.05-.06-.1-.11-.16-.16-6.83-8.04-17.02-13.16-28.38-13.16s-21.54,5.11-28.38,13.16c-.06.05-.11.1-.16.16-.04.05-.08.1-.11.16-5.36,6.45-8.6,14.74-8.6,23.78,0,9.65,3.69,18.44,9.72,25.06.02.02.03.04.04.06.07.09.16.18.25.25,6.8,7.3,16.5,11.88,27.24,11.88s20.44-4.57,27.24-11.88c.09-.07.18-.16.25-.26.02-.02.03-.04.04-.06,6.04-6.62,9.72-15.42,9.72-25.06Zm-14.94,20.04c2.51-5.54,3.94-11.94,4.11-18.64h8.01c-.32,7.99-3.38,15.29-8.26,20.99-1.21-.85-2.5-1.63-3.85-2.35Zm-48.47,2.35c-4.88-5.7-7.94-12.99-8.26-20.99h8c.18,6.7,1.6,13.1,4.11,18.64-1.35.72-2.64,1.5-3.85,2.35Zm-1.07-43.47c1.31.99,2.71,1.91,4.2,2.73-2.06,5.14-3.23,10.92-3.39,16.95h-8c.3-7.4,2.93-14.2,7.19-19.68Zm61.65,19.68h-8.01c-.16-6.03-1.32-11.81-3.39-16.95,1.49-.83,2.89-1.74,4.2-2.73,4.26,5.48,6.9,12.29,7.19,19.68Zm-10.8,0h-11.43c-.05-4.38-.33-8.61-.82-12.56,3.24-.73,6.32-1.78,9.17-3.1,1.83,4.65,2.93,9.98,3.09,15.67Zm-22.22,35.35v-16.34c2.2.06,4.36.27,6.48.61-.44,2.42-.97,4.68-1.59,6.72-1.39,4.6-3.17,7.83-4.9,9.01Zm-7.7-9.01c-.61-2.05-1.15-4.3-1.58-6.72,2.11-.34,4.29-.55,6.48-.61v16.34c-1.73-1.18-3.51-4.41-4.9-9.01Zm4.9-58.91v18.44c-2.32-.07-4.61-.29-6.83-.67.49-3.19,1.15-6.15,1.93-8.76,1.39-4.6,3.17-7.83,4.9-9.02Zm7.69,9.02c.79,2.61,1.43,5.56,1.93,8.76-2.22.38-4.5.6-6.82.67V14.64c1.72,1.18,3.51,4.41,4.9,9.02Zm-7.69,12.22v11.33h-7.99c.05-4.19.32-8.24.78-12.02,2.35.4,4.76.63,7.21.69Zm0,14.13v13.41c-2.35.06-4.67.29-6.94.66-.64-4.34-1-9.11-1.06-14.07h7.99Zm2.8,13.41v-13.41h7.99c-.06,4.95-.42,9.72-1.06,14.07-2.27-.37-4.59-.59-6.93-.66Zm0-16.21v-11.33c2.45-.06,4.86-.3,7.21-.69.47,3.78.73,7.83.78,12.02h-7.99Zm9.57-15.34c-.51-3.28-1.18-6.32-1.99-9.02-.97-3.24-2.11-5.83-3.37-7.72,5.68,2.02,10.56,7.04,13.81,13.84-2.61,1.23-5.45,2.2-8.45,2.89Zm-16.57-16.73c-1.27,1.89-2.4,4.47-3.38,7.72-.81,2.69-1.48,5.73-1.99,9.02-2.99-.69-5.83-1.66-8.44-2.89,3.24-6.8,8.13-11.82,13.81-13.84Zm-5.76,19.51c-.49,3.95-.78,8.19-.83,12.56h-11.43c.16-5.68,1.26-11.02,3.09-15.67,2.84,1.33,5.92,2.37,9.17,3.1Zm-12.26,15.36h11.43c.06,5.13.44,10.08,1.1,14.59-3.06.68-5.98,1.63-8.7,2.83-2.27-5.05-3.65-11.01-3.83-17.42Zm12.98,17.35c.46,2.52,1.02,4.86,1.66,7,.98,3.24,2.11,5.83,3.38,7.72-5.2-1.85-9.73-6.21-12.95-12.14,2.47-1.09,5.14-1.95,7.92-2.58Zm16.23,14.72c1.26-1.89,2.4-4.47,3.37-7.72.65-2.14,1.2-4.48,1.66-7,2.78.63,5.45,1.49,7.92,2.58-3.22,5.93-7.74,10.29-12.94,12.14Zm5.48-17.48c.67-4.52,1.05-9.46,1.1-14.59h11.43c-.18,6.41-1.56,12.38-3.83,17.42-2.71-1.2-5.65-2.15-8.7-2.83Zm14.34-39.21c-1.1.83-2.28,1.6-3.53,2.31-.9-1.85-1.91-3.61-3.05-5.24-1.38-1.96-2.88-3.69-4.48-5.16,4.21,1.94,7.97,4.7,11.06,8.09Zm-39.8-8.09c-1.6,1.47-3.1,3.19-4.48,5.16-1.14,1.63-2.16,3.39-3.05,5.24-1.24-.71-2.43-1.48-3.53-2.31,3.09-3.39,6.85-6.15,11.06-8.09Zm-9.86,55.77c1-.68,2.06-1.32,3.17-1.91.68,1.26,1.42,2.46,2.21,3.6,1.38,1.97,2.88,3.69,4.48,5.16-3.68-1.7-7.02-4.03-9.86-6.85Zm43.09,1.69c.8-1.14,1.53-2.34,2.21-3.6,1.1.59,2.17,1.22,3.17,1.91-2.85,2.82-6.18,5.15-9.87,6.85,1.6-1.46,3.11-3.19,4.48-5.16Z"/>
  </g>
</svg>