<svg xmlns="http://www.w3.org/2000/svg" xmlns:xlink="http://www.w3.org/1999/xlink" width="320" zoomAndPan="magnify" viewBox="0 0 240 74.999997" height="100" preserveAspectRatio="xMidYMid meet" version="1.0"><defs><clipPath id="e43a34cdfb"><path d="M 1.5 1.0625 L 74.667969 1.0625 L 74.667969 74.230469 L 1.5 74.230469 Z M 1.5 1.0625 " clip-rule="nonzero"/></clipPath><clipPath id="ab48b426d4"><path d="M 38.085938 1.0625 C 17.878906 1.0625 1.5 17.441406 1.5 37.648438 C 1.5 57.851562 17.878906 74.230469 38.085938 74.230469 C 58.289062 74.230469 74.667969 57.851562 74.667969 37.648438 C 74.667969 17.441406 58.289062 1.0625 38.085938 1.0625 " clip-rule="nonzero"/></clipPath><clipPath id="848d2633e2"><path d="M 10.007812 9.570312 L 65.882812 9.570312 L 65.882812 65.445312 L 10.007812 65.445312 Z M 10.007812 9.570312 " clip-rule="nonzero"/></clipPath></defs><g clip-path="url(#e43a34cdfb)"><g clip-path="url(#ab48b426d4)"><path fill="#ffffff" d="M 1.5 1.0625 L 74.667969 1.0625 L 74.667969 74.230469 L 1.5 74.230469 Z M 1.5 1.0625 " fill-opacity="1" fill-rule="nonzero"/></g></g><g clip-path="url(#848d2633e2)"><path fill="#002169" d="M 65.882812 37.507812 C 65.882812 30.734375 63.457031 24.515625 59.433594 19.675781 C 59.40625 19.632812 59.378906 19.59375 59.347656 19.554688 C 59.3125 19.511719 59.273438 19.472656 59.230469 19.4375 C 54.105469 13.40625 46.464844 9.570312 37.945312 9.570312 C 29.425781 9.570312 21.789062 13.40625 16.660156 19.4375 C 16.617188 19.472656 16.578125 19.511719 16.542969 19.554688 C 16.511719 19.59375 16.484375 19.632812 16.457031 19.675781 C 12.433594 24.515625 10.007812 30.734375 10.007812 37.507812 C 10.007812 44.742188 12.773438 51.339844 17.296875 56.304688 C 17.308594 56.320312 17.316406 56.335938 17.324219 56.347656 C 17.378906 56.417969 17.441406 56.480469 17.511719 56.535156 C 22.613281 62.011719 29.886719 65.445312 37.945312 65.445312 C 46.003906 65.445312 53.277344 62.015625 58.378906 56.539062 C 58.449219 56.484375 58.511719 56.421875 58.566406 56.347656 C 58.578125 56.335938 58.585938 56.320312 58.59375 56.304688 C 63.121094 51.339844 65.882812 44.742188 65.882812 37.507812 Z M 54.675781 52.539062 C 56.558594 48.382812 57.628906 43.585938 57.757812 38.558594 L 63.761719 38.558594 C 63.519531 44.554688 61.226562 50.027344 57.566406 54.300781 C 56.65625 53.664062 55.691406 53.078125 54.675781 52.539062 Z M 18.324219 54.300781 C 14.664062 50.027344 12.371094 44.554688 12.132812 38.558594 L 18.132812 38.558594 C 18.265625 43.585938 19.332031 48.382812 21.214844 52.539062 C 20.199219 53.078125 19.234375 53.664062 18.324219 54.300781 Z M 17.523438 21.699219 C 18.503906 22.445312 19.558594 23.128906 20.671875 23.75 C 19.125 27.601562 18.25 31.9375 18.132812 36.460938 L 12.132812 36.460938 C 12.355469 30.914062 14.332031 25.8125 17.523438 21.699219 Z M 63.761719 36.460938 L 57.757812 36.460938 C 57.640625 31.9375 56.765625 27.601562 55.21875 23.75 C 56.335938 23.128906 57.386719 22.445312 58.367188 21.699219 C 61.5625 25.8125 63.539062 30.914062 63.761719 36.460938 Z M 55.660156 36.460938 L 47.085938 36.460938 C 47.050781 33.179688 46.839844 30.003906 46.46875 27.039062 C 48.898438 26.488281 51.210938 25.707031 53.34375 24.710938 C 54.714844 28.199219 55.542969 32.199219 55.660156 36.460938 Z M 38.996094 62.976562 L 38.996094 50.71875 C 40.644531 50.765625 42.269531 50.917969 43.859375 51.175781 C 43.527344 52.992188 43.128906 54.683594 42.667969 56.21875 C 41.628906 59.667969 40.289062 62.09375 38.996094 62.976562 Z M 33.222656 56.21875 C 32.761719 54.683594 32.363281 52.992188 32.035156 51.175781 C 33.621094 50.917969 35.25 50.765625 36.898438 50.71875 L 36.898438 62.976562 C 35.601562 62.09375 34.265625 59.667969 33.222656 56.21875 Z M 36.898438 12.039062 L 36.898438 25.867188 C 35.15625 25.816406 33.441406 25.648438 31.777344 25.367188 C 32.148438 22.972656 32.636719 20.757812 33.222656 18.800781 C 34.265625 15.347656 35.601562 12.925781 36.898438 12.039062 Z M 42.667969 18.800781 C 43.257812 20.757812 43.742188 22.972656 44.113281 25.367188 C 42.449219 25.648438 40.738281 25.816406 38.996094 25.867188 L 38.996094 12.039062 C 40.289062 12.925781 41.628906 15.347656 42.667969 18.800781 Z M 36.898438 27.964844 L 36.898438 36.460938 L 30.902344 36.460938 C 30.941406 33.320312 31.140625 30.277344 31.488281 27.445312 C 33.25 27.742188 35.058594 27.917969 36.898438 27.964844 Z M 36.898438 38.558594 L 36.898438 48.617188 C 35.136719 48.664062 33.394531 48.832031 31.695312 49.109375 C 31.21875 45.851562 30.945312 42.273438 30.902344 38.558594 Z M 38.996094 48.617188 L 38.996094 38.558594 L 44.988281 38.558594 C 44.945312 42.273438 44.675781 45.851562 44.195312 49.109375 C 42.496094 48.832031 40.753906 48.664062 38.996094 48.617188 Z M 38.996094 36.460938 L 38.996094 27.964844 C 40.832031 27.917969 42.644531 27.742188 44.402344 27.445312 C 44.753906 30.277344 44.953125 33.320312 44.988281 36.460938 Z M 46.171875 24.957031 C 45.789062 22.496094 45.285156 20.214844 44.675781 18.195312 C 43.945312 15.761719 43.09375 13.824219 42.148438 12.40625 C 46.410156 13.921875 50.070312 17.6875 52.507812 22.789062 C 50.546875 23.710938 48.417969 24.4375 46.171875 24.957031 Z M 33.746094 12.40625 C 32.796875 13.824219 31.949219 15.761719 31.214844 18.195312 C 30.605469 20.214844 30.105469 22.496094 29.71875 24.957031 C 27.476562 24.4375 25.34375 23.710938 23.386719 22.789062 C 25.820312 17.6875 29.484375 13.921875 33.746094 12.40625 Z M 29.425781 27.039062 C 29.054688 30.003906 28.84375 33.179688 28.804688 36.460938 L 20.234375 36.460938 C 20.351562 32.199219 21.179688 28.199219 22.550781 24.710938 C 24.679688 25.707031 26.992188 26.488281 29.425781 27.039062 Z M 20.234375 38.558594 L 28.804688 38.558594 C 28.847656 42.40625 29.132812 46.117188 29.632812 49.503906 C 27.339844 50.011719 25.144531 50.722656 23.105469 51.625 C 21.402344 47.839844 20.367188 43.367188 20.234375 38.558594 Z M 29.972656 51.574219 C 30.316406 53.460938 30.734375 55.222656 31.214844 56.824219 C 31.949219 59.257812 32.796875 61.195312 33.746094 62.613281 C 29.847656 61.226562 26.449219 57.957031 24.035156 53.507812 C 25.890625 52.691406 27.886719 52.042969 29.972656 51.574219 Z M 42.148438 62.613281 C 43.09375 61.195312 43.945312 59.257812 44.675781 56.824219 C 45.160156 55.222656 45.574219 53.460938 45.917969 51.574219 C 48.003906 52.042969 50.003906 52.691406 51.855469 53.507812 C 49.441406 57.957031 46.046875 61.226562 42.148438 62.613281 Z M 46.257812 49.503906 C 46.757812 46.117188 47.042969 42.40625 47.085938 38.558594 L 55.660156 38.558594 C 55.527344 43.367188 54.488281 47.839844 52.785156 51.625 C 50.75 50.722656 48.550781 50.011719 46.257812 49.503906 Z M 57.015625 20.09375 C 56.1875 20.714844 55.304688 21.292969 54.371094 21.824219 C 53.699219 20.433594 52.9375 19.117188 52.085938 17.894531 C 51.054688 16.421875 49.925781 15.128906 48.722656 14.027344 C 51.882812 15.484375 54.699219 17.554688 57.015625 20.09375 Z M 27.167969 14.027344 C 25.964844 15.128906 24.839844 16.421875 23.808594 17.894531 C 22.953125 19.117188 22.191406 20.433594 21.523438 21.824219 C 20.589844 21.292969 19.703125 20.714844 18.875 20.09375 C 21.195312 17.554688 24.011719 15.484375 27.167969 14.027344 Z M 19.769531 55.851562 C 20.519531 55.339844 21.316406 54.863281 22.148438 54.421875 C 22.65625 55.363281 23.210938 56.265625 23.808594 57.121094 C 24.839844 58.597656 25.964844 59.890625 27.167969 60.988281 C 24.40625 59.714844 21.902344 57.96875 19.769531 55.851562 Z M 52.085938 57.121094 C 52.683594 56.265625 53.234375 55.363281 53.746094 54.421875 C 54.574219 54.863281 55.371094 55.339844 56.125 55.851562 C 53.988281 57.96875 51.488281 59.714844 48.722656 60.988281 C 49.925781 59.890625 51.054688 58.597656 52.085938 57.121094 Z M 52.085938 57.121094 " fill-opacity="1" fill-rule="nonzero"/></g></svg>