<svg xmlns="http://www.w3.org/2000/svg" xmlns:xlink="http://www.w3.org/1999/xlink" width="320" zoomAndPan="magnify" viewBox="0 0 240 74.999997" height="100" preserveAspectRatio="xMidYMid meet" version="1.0"><defs><g/><clipPath id="0361ec93d6"><path d="M 1.5 1.0625 L 74.667969 1.0625 L 74.667969 74.230469 L 1.5 74.230469 Z M 1.5 1.0625 " clip-rule="nonzero"/></clipPath><clipPath id="9a25aead27"><path d="M 38.085938 1.0625 C 17.878906 1.0625 1.5 17.441406 1.5 37.648438 C 1.5 57.851562 17.878906 74.230469 38.085938 74.230469 C 58.289062 74.230469 74.667969 57.851562 74.667969 37.648438 C 74.667969 17.441406 58.289062 1.0625 38.085938 1.0625 " clip-rule="nonzero"/></clipPath><clipPath id="4175a9b1d8"><path d="M 10.007812 9.570312 L 65.882812 9.570312 L 65.882812 65.445312 L 10.007812 65.445312 Z M 10.007812 9.570312 " clip-rule="nonzero"/></clipPath></defs><g clip-path="url(#0361ec93d6)"><g clip-path="url(#9a25aead27)"><path fill="#ffffff" d="M 1.5 1.0625 L 74.667969 1.0625 L 74.667969 74.230469 L 1.5 74.230469 Z M 1.5 1.0625 " fill-opacity="1" fill-rule="nonzero"/></g></g><g clip-path="url(#4175a9b1d8)"><path fill="#002169" d="M 65.882812 37.507812 C 65.882812 30.734375 63.457031 24.515625 59.433594 19.675781 C 59.40625 19.632812 59.378906 19.59375 59.347656 19.554688 C 59.3125 19.511719 59.273438 19.472656 59.230469 19.4375 C 54.105469 13.40625 46.464844 9.570312 37.945312 9.570312 C 29.425781 9.570312 21.789062 13.40625 16.660156 19.4375 C 16.617188 19.472656 16.578125 19.511719 16.542969 19.554688 C 16.511719 19.59375 16.484375 19.632812 16.457031 19.675781 C 12.433594 24.515625 10.007812 30.734375 10.007812 37.507812 C 10.007812 44.742188 12.773438 51.339844 17.296875 56.304688 C 17.308594 56.320312 17.316406 56.335938 17.324219 56.347656 C 17.378906 56.417969 17.441406 56.480469 17.511719 56.535156 C 22.613281 62.011719 29.886719 65.445312 37.945312 65.445312 C 46.003906 65.445312 53.277344 62.015625 58.378906 56.539062 C 58.449219 56.484375 58.511719 56.421875 58.566406 56.347656 C 58.578125 56.335938 58.585938 56.320312 58.59375 56.304688 C 63.121094 51.339844 65.882812 44.742188 65.882812 37.507812 Z M 54.675781 52.539062 C 56.558594 48.382812 57.628906 43.585938 57.757812 38.558594 L 63.761719 38.558594 C 63.519531 44.554688 61.226562 50.027344 57.566406 54.300781 C 56.65625 53.664062 55.691406 53.078125 54.675781 52.539062 Z M 18.324219 54.300781 C 14.664062 50.027344 12.371094 44.554688 12.132812 38.558594 L 18.132812 38.558594 C 18.265625 43.585938 19.332031 48.382812 21.214844 52.539062 C 20.199219 53.078125 19.234375 53.664062 18.324219 54.300781 Z M 17.523438 21.699219 C 18.503906 22.445312 19.558594 23.128906 20.671875 23.75 C 19.125 27.601562 18.25 31.9375 18.132812 36.460938 L 12.132812 36.460938 C 12.355469 30.914062 14.332031 25.8125 17.523438 21.699219 Z M 63.761719 36.460938 L 57.757812 36.460938 C 57.640625 31.9375 56.765625 27.601562 55.21875 23.75 C 56.335938 23.128906 57.386719 22.445312 58.367188 21.699219 C 61.5625 25.8125 63.539062 30.914062 63.761719 36.460938 Z M 55.660156 36.460938 L 47.085938 36.460938 C 47.050781 33.179688 46.839844 30.003906 46.46875 27.039062 C 48.898438 26.488281 51.210938 25.707031 53.34375 24.710938 C 54.714844 28.199219 55.542969 32.199219 55.660156 36.460938 Z M 38.996094 62.976562 L 38.996094 50.71875 C 40.644531 50.765625 42.269531 50.917969 43.859375 51.175781 C 43.527344 52.992188 43.128906 54.683594 42.667969 56.21875 C 41.628906 59.667969 40.289062 62.09375 38.996094 62.976562 Z M 33.222656 56.21875 C 32.761719 54.683594 32.363281 52.992188 32.035156 51.175781 C 33.621094 50.917969 35.25 50.765625 36.898438 50.71875 L 36.898438 62.976562 C 35.601562 62.09375 34.265625 59.667969 33.222656 56.21875 Z M 36.898438 12.039062 L 36.898438 25.867188 C 35.15625 25.816406 33.441406 25.648438 31.777344 25.367188 C 32.148438 22.972656 32.636719 20.757812 33.222656 18.800781 C 34.265625 15.347656 35.601562 12.925781 36.898438 12.039062 Z M 42.667969 18.800781 C 43.257812 20.757812 43.742188 22.972656 44.113281 25.367188 C 42.449219 25.648438 40.738281 25.816406 38.996094 25.867188 L 38.996094 12.039062 C 40.289062 12.925781 41.628906 15.347656 42.667969 18.800781 Z M 36.898438 27.964844 L 36.898438 36.460938 L 30.902344 36.460938 C 30.941406 33.320312 31.140625 30.277344 31.488281 27.445312 C 33.25 27.742188 35.058594 27.917969 36.898438 27.964844 Z M 36.898438 38.558594 L 36.898438 48.617188 C 35.136719 48.664062 33.394531 48.832031 31.695312 49.109375 C 31.21875 45.851562 30.945312 42.273438 30.902344 38.558594 Z M 38.996094 48.617188 L 38.996094 38.558594 L 44.988281 38.558594 C 44.945312 42.273438 44.675781 45.851562 44.195312 49.109375 C 42.496094 48.832031 40.753906 48.664062 38.996094 48.617188 Z M 38.996094 36.460938 L 38.996094 27.964844 C 40.832031 27.917969 42.644531 27.742188 44.402344 27.445312 C 44.753906 30.277344 44.953125 33.320312 44.988281 36.460938 Z M 46.171875 24.957031 C 45.789062 22.496094 45.285156 20.214844 44.675781 18.195312 C 43.945312 15.761719 43.09375 13.824219 42.148438 12.40625 C 46.410156 13.921875 50.070312 17.6875 52.507812 22.789062 C 50.546875 23.710938 48.417969 24.4375 46.171875 24.957031 Z M 33.746094 12.40625 C 32.796875 13.824219 31.949219 15.761719 31.214844 18.195312 C 30.605469 20.214844 30.105469 22.496094 29.71875 24.957031 C 27.476562 24.4375 25.34375 23.710938 23.386719 22.789062 C 25.820312 17.6875 29.484375 13.921875 33.746094 12.40625 Z M 29.425781 27.039062 C 29.054688 30.003906 28.84375 33.179688 28.804688 36.460938 L 20.234375 36.460938 C 20.351562 32.199219 21.179688 28.199219 22.550781 24.710938 C 24.679688 25.707031 26.992188 26.488281 29.425781 27.039062 Z M 20.234375 38.558594 L 28.804688 38.558594 C 28.847656 42.40625 29.132812 46.117188 29.632812 49.503906 C 27.339844 50.011719 25.144531 50.722656 23.105469 51.625 C 21.402344 47.839844 20.367188 43.367188 20.234375 38.558594 Z M 29.972656 51.574219 C 30.316406 53.460938 30.734375 55.222656 31.214844 56.824219 C 31.949219 59.257812 32.796875 61.195312 33.746094 62.613281 C 29.847656 61.226562 26.449219 57.957031 24.035156 53.507812 C 25.890625 52.691406 27.886719 52.042969 29.972656 51.574219 Z M 42.148438 62.613281 C 43.09375 61.195312 43.945312 59.257812 44.675781 56.824219 C 45.160156 55.222656 45.574219 53.460938 45.917969 51.574219 C 48.003906 52.042969 50.003906 52.691406 51.855469 53.507812 C 49.441406 57.957031 46.046875 61.226562 42.148438 62.613281 Z M 46.257812 49.503906 C 46.757812 46.117188 47.042969 42.40625 47.085938 38.558594 L 55.660156 38.558594 C 55.527344 43.367188 54.488281 47.839844 52.785156 51.625 C 50.75 50.722656 48.550781 50.011719 46.257812 49.503906 Z M 57.015625 20.09375 C 56.1875 20.714844 55.304688 21.292969 54.371094 21.824219 C 53.699219 20.433594 52.9375 19.117188 52.085938 17.894531 C 51.054688 16.421875 49.925781 15.128906 48.722656 14.027344 C 51.882812 15.484375 54.699219 17.554688 57.015625 20.09375 Z M 27.167969 14.027344 C 25.964844 15.128906 24.839844 16.421875 23.808594 17.894531 C 22.953125 19.117188 22.191406 20.433594 21.523438 21.824219 C 20.589844 21.292969 19.703125 20.714844 18.875 20.09375 C 21.195312 17.554688 24.011719 15.484375 27.167969 14.027344 Z M 19.769531 55.851562 C 20.519531 55.339844 21.316406 54.863281 22.148438 54.421875 C 22.65625 55.363281 23.210938 56.265625 23.808594 57.121094 C 24.839844 58.597656 25.964844 59.890625 27.167969 60.988281 C 24.40625 59.714844 21.902344 57.96875 19.769531 55.851562 Z M 52.085938 57.121094 C 52.683594 56.265625 53.234375 55.363281 53.746094 54.421875 C 54.574219 54.863281 55.371094 55.339844 56.125 55.851562 C 53.988281 57.96875 51.488281 59.714844 48.722656 60.988281 C 49.925781 59.890625 51.054688 58.597656 52.085938 57.121094 Z M 52.085938 57.121094 " fill-opacity="1" fill-rule="nonzero"/></g><g fill="#ffffff" fill-opacity="1"><g transform="translate(98.877088, 34.93004)"><g><path d="M 9.78125 -0.3125 C 9.800781 -0.257812 9.8125 -0.222656 9.8125 -0.203125 C 9.8125 -0.148438 9.789062 -0.101562 9.75 -0.0625 C 9.707031 -0.0195312 9.65625 0 9.59375 0 L 8.109375 0 C 7.992188 0 7.90625 -0.0703125 7.84375 -0.21875 L 5.984375 -4.84375 C 5.941406 -4.96875 5.8125 -5.03125 5.59375 -5.03125 L 3.375 -5.03125 C 3.25 -5.03125 3.1875 -4.972656 3.1875 -4.859375 L 3.1875 -0.28125 C 3.1875 -0.175781 3.160156 -0.101562 3.109375 -0.0625 C 3.066406 -0.0195312 2.992188 0 2.890625 0 L 1.59375 0 C 1.507812 0 1.445312 -0.0195312 1.40625 -0.0625 C 1.363281 -0.101562 1.34375 -0.164062 1.34375 -0.25 L 1.34375 -11.09375 C 1.34375 -11.164062 1.359375 -11.21875 1.390625 -11.25 C 1.421875 -11.289062 1.476562 -11.3125 1.5625 -11.3125 L 5.96875 -11.3125 C 7.226562 -11.3125 8.203125 -11.054688 8.890625 -10.546875 C 9.578125 -10.035156 9.921875 -9.296875 9.921875 -8.328125 C 9.921875 -7.546875 9.707031 -6.90625 9.28125 -6.40625 C 8.863281 -5.90625 8.347656 -5.5625 7.734375 -5.375 C 7.671875 -5.351562 7.648438 -5.289062 7.671875 -5.1875 Z M 5.59375 -6.328125 C 6.40625 -6.328125 7.007812 -6.476562 7.40625 -6.78125 C 7.8125 -7.09375 8.015625 -7.5625 8.015625 -8.1875 C 8.015625 -8.800781 7.828125 -9.257812 7.453125 -9.5625 C 7.085938 -9.863281 6.554688 -10.015625 5.859375 -10.015625 L 3.4375 -10.015625 C 3.34375 -10.015625 3.273438 -10 3.234375 -9.96875 C 3.203125 -9.945312 3.1875 -9.90625 3.1875 -9.84375 L 3.1875 -6.546875 C 3.1875 -6.398438 3.242188 -6.328125 3.359375 -6.328125 Z M 5.59375 -6.328125 "/></g></g></g><g fill="#ffffff" fill-opacity="1"><g transform="translate(109.616996, 34.93004)"><g><path d="M 1.34375 -11.09375 C 1.34375 -11.164062 1.359375 -11.21875 1.390625 -11.25 C 1.421875 -11.289062 1.476562 -11.3125 1.5625 -11.3125 L 8.65625 -11.3125 C 8.78125 -11.3125 8.84375 -11.25 8.84375 -11.125 L 8.828125 -10.15625 C 8.828125 -10 8.75 -9.921875 8.59375 -9.921875 L 3.421875 -9.921875 C 3.265625 -9.921875 3.1875 -9.859375 3.1875 -9.734375 L 3.1875 -6.59375 C 3.1875 -6.457031 3.253906 -6.390625 3.390625 -6.390625 L 7.109375 -6.390625 C 7.242188 -6.390625 7.3125 -6.328125 7.3125 -6.203125 L 7.3125 -5.1875 C 7.3125 -5.070312 7.242188 -5.015625 7.109375 -5.015625 L 3.375 -5.015625 C 3.25 -5.015625 3.1875 -4.957031 3.1875 -4.84375 L 3.1875 -1.5625 C 3.1875 -1.5 3.195312 -1.453125 3.21875 -1.421875 C 3.25 -1.398438 3.289062 -1.390625 3.34375 -1.390625 L 8.8125 -1.390625 C 8.894531 -1.390625 8.953125 -1.375 8.984375 -1.34375 C 9.015625 -1.320312 9.03125 -1.273438 9.03125 -1.203125 L 9.03125 -0.203125 C 9.03125 -0.0664062 8.957031 0 8.8125 0 L 1.59375 0 C 1.5 0 1.429688 -0.015625 1.390625 -0.046875 C 1.359375 -0.0859375 1.34375 -0.15625 1.34375 -0.25 Z M 1.34375 -11.09375 "/></g></g></g><g fill="#ffffff" fill-opacity="1"><g transform="translate(119.319523, 34.93004)"><g><path d="M 1.59375 0 C 1.425781 0 1.34375 -0.0859375 1.34375 -0.265625 L 1.34375 -11.09375 C 1.34375 -11.164062 1.359375 -11.21875 1.390625 -11.25 C 1.421875 -11.289062 1.476562 -11.3125 1.5625 -11.3125 L 3.546875 -11.3125 C 3.640625 -11.3125 3.707031 -11.296875 3.75 -11.265625 C 3.789062 -11.242188 3.820312 -11.195312 3.84375 -11.125 L 6.890625 -3.125 C 6.921875 -3.03125 6.957031 -2.984375 7 -2.984375 C 7.03125 -2.984375 7.070312 -3.035156 7.125 -3.140625 L 10.125 -11.078125 C 10.1875 -11.234375 10.28125 -11.3125 10.40625 -11.3125 L 12.46875 -11.3125 C 12.601562 -11.3125 12.671875 -11.238281 12.671875 -11.09375 L 12.671875 -0.28125 C 12.671875 -0.175781 12.648438 -0.101562 12.609375 -0.0625 C 12.566406 -0.0195312 12.492188 0 12.390625 0 L 11.09375 0 C 11 0 10.929688 -0.015625 10.890625 -0.046875 C 10.847656 -0.0859375 10.828125 -0.15625 10.828125 -0.25 L 10.828125 -8.59375 C 10.828125 -8.644531 10.816406 -8.664062 10.796875 -8.65625 C 10.773438 -8.65625 10.753906 -8.628906 10.734375 -8.578125 L 7.59375 -0.21875 C 7.539062 -0.0703125 7.445312 0 7.3125 0 L 6.390625 0 C 6.234375 0 6.125 -0.0664062 6.0625 -0.203125 L 2.984375 -8.5 C 2.960938 -8.5625 2.9375 -8.585938 2.90625 -8.578125 C 2.882812 -8.578125 2.875 -8.550781 2.875 -8.5 L 2.875 -0.21875 C 2.875 -0.132812 2.859375 -0.078125 2.828125 -0.046875 C 2.804688 -0.015625 2.75 0 2.65625 0 Z M 1.59375 0 "/></g></g></g><g fill="#ffffff" fill-opacity="1"><g transform="translate(133.339374, 34.93004)"><g><path d="M 5.859375 0.15625 C 4.828125 0.15625 3.941406 -0.0664062 3.203125 -0.515625 C 2.460938 -0.972656 1.894531 -1.632812 1.5 -2.5 C 1.101562 -3.363281 0.90625 -4.398438 0.90625 -5.609375 C 0.90625 -6.828125 1.101562 -7.875 1.5 -8.75 C 1.90625 -9.632812 2.476562 -10.304688 3.21875 -10.765625 C 3.96875 -11.234375 4.851562 -11.46875 5.875 -11.46875 C 6.875 -11.46875 7.742188 -11.234375 8.484375 -10.765625 C 9.222656 -10.304688 9.789062 -9.640625 10.1875 -8.765625 C 10.59375 -7.890625 10.796875 -6.84375 10.796875 -5.625 C 10.796875 -4.414062 10.597656 -3.378906 10.203125 -2.515625 C 9.804688 -1.648438 9.234375 -0.988281 8.484375 -0.53125 C 7.742188 -0.0703125 6.867188 0.15625 5.859375 0.15625 Z M 5.875 -1.203125 C 6.882812 -1.203125 7.632812 -1.554688 8.125 -2.265625 C 8.625 -2.984375 8.875 -4.097656 8.875 -5.609375 C 8.875 -7.148438 8.625 -8.285156 8.125 -9.015625 C 7.625 -9.753906 6.875 -10.125 5.875 -10.125 C 4.851562 -10.125 4.085938 -9.753906 3.578125 -9.015625 C 3.078125 -8.285156 2.828125 -7.148438 2.828125 -5.609375 C 2.828125 -4.109375 3.078125 -3 3.578125 -2.28125 C 4.078125 -1.5625 4.84375 -1.203125 5.875 -1.203125 Z M 5.875 -1.203125 "/></g></g></g><g fill="#ffffff" fill-opacity="1"><g transform="translate(145.04039, 34.93004)"><g><path d="M 0.59375 -11.109375 C 0.59375 -11.242188 0.671875 -11.3125 0.828125 -11.3125 L 9.203125 -11.3125 C 9.335938 -11.3125 9.40625 -11.242188 9.40625 -11.109375 L 9.40625 -10.125 C 9.40625 -10 9.335938 -9.9375 9.203125 -9.9375 L 6.171875 -9.9375 C 6.109375 -9.9375 6.066406 -9.925781 6.046875 -9.90625 C 6.035156 -9.882812 6.03125 -9.851562 6.03125 -9.8125 L 6.03125 -0.234375 C 6.03125 -0.078125 5.957031 0 5.8125 0 L 4.375 0 C 4.238281 0 4.171875 -0.0703125 4.171875 -0.21875 L 4.171875 -9.78125 C 4.171875 -9.84375 4.160156 -9.882812 4.140625 -9.90625 C 4.117188 -9.925781 4.078125 -9.9375 4.015625 -9.9375 L 0.8125 -9.9375 C 0.664062 -9.9375 0.59375 -10 0.59375 -10.125 Z M 0.59375 -11.109375 "/></g></g></g><g fill="#ffffff" fill-opacity="1"><g transform="translate(155.048032, 34.93004)"><g><path d="M 1.34375 -11.09375 C 1.34375 -11.164062 1.359375 -11.21875 1.390625 -11.25 C 1.421875 -11.289062 1.476562 -11.3125 1.5625 -11.3125 L 8.65625 -11.3125 C 8.78125 -11.3125 8.84375 -11.25 8.84375 -11.125 L 8.828125 -10.15625 C 8.828125 -10 8.75 -9.921875 8.59375 -9.921875 L 3.421875 -9.921875 C 3.265625 -9.921875 3.1875 -9.859375 3.1875 -9.734375 L 3.1875 -6.59375 C 3.1875 -6.457031 3.253906 -6.390625 3.390625 -6.390625 L 7.109375 -6.390625 C 7.242188 -6.390625 7.3125 -6.328125 7.3125 -6.203125 L 7.3125 -5.1875 C 7.3125 -5.070312 7.242188 -5.015625 7.109375 -5.015625 L 3.375 -5.015625 C 3.25 -5.015625 3.1875 -4.957031 3.1875 -4.84375 L 3.1875 -1.5625 C 3.1875 -1.5 3.195312 -1.453125 3.21875 -1.421875 C 3.25 -1.398438 3.289062 -1.390625 3.34375 -1.390625 L 8.8125 -1.390625 C 8.894531 -1.390625 8.953125 -1.375 8.984375 -1.34375 C 9.015625 -1.320312 9.03125 -1.273438 9.03125 -1.203125 L 9.03125 -0.203125 C 9.03125 -0.0664062 8.957031 0 8.8125 0 L 1.59375 0 C 1.5 0 1.429688 -0.015625 1.390625 -0.046875 C 1.359375 -0.0859375 1.34375 -0.15625 1.34375 -0.25 Z M 1.34375 -11.09375 "/></g></g></g><g fill="#ffffff" fill-opacity="1"><g transform="translate(98.877088, 50.185485)"><g><path d="M 0.8125 0 C 0.6875 0 0.625 -0.0625 0.625 -0.1875 L 0.65625 -0.3125 L 4.546875 -11.078125 C 4.578125 -11.160156 4.617188 -11.21875 4.671875 -11.25 C 4.722656 -11.289062 4.789062 -11.3125 4.875 -11.3125 L 6.421875 -11.3125 C 6.609375 -11.3125 6.734375 -11.226562 6.796875 -11.0625 L 10.65625 -0.3125 C 10.664062 -0.289062 10.671875 -0.253906 10.671875 -0.203125 C 10.671875 -0.0664062 10.613281 0 10.5 0 L 9.0625 0 C 8.925781 0 8.835938 -0.0625 8.796875 -0.1875 L 7.828125 -2.890625 C 7.804688 -2.941406 7.785156 -2.976562 7.765625 -3 C 7.742188 -3.019531 7.703125 -3.03125 7.640625 -3.03125 L 3.421875 -3.03125 C 3.328125 -3.03125 3.265625 -2.988281 3.234375 -2.90625 L 2.234375 -0.15625 C 2.210938 -0.0507812 2.128906 0 1.984375 0 Z M 7.171875 -4.46875 C 7.242188 -4.46875 7.285156 -4.484375 7.296875 -4.515625 C 7.304688 -4.554688 7.304688 -4.613281 7.296875 -4.6875 L 5.640625 -9.25 C 5.609375 -9.320312 5.570312 -9.359375 5.53125 -9.359375 C 5.488281 -9.359375 5.453125 -9.316406 5.421875 -9.234375 L 3.734375 -4.671875 L 3.71875 -4.578125 C 3.71875 -4.503906 3.765625 -4.46875 3.859375 -4.46875 Z M 7.171875 -4.46875 "/></g></g></g><g fill="#ffffff" fill-opacity="1"><g transform="translate(110.181448, 50.185485)"><g><path d="M 5.78125 -11.46875 C 6.476562 -11.46875 7.132812 -11.320312 7.75 -11.03125 C 8.375 -10.738281 8.890625 -10.347656 9.296875 -9.859375 C 9.703125 -9.378906 9.953125 -8.847656 10.046875 -8.265625 C 10.054688 -8.222656 10.0625 -8.171875 10.0625 -8.109375 C 10.0625 -8.054688 10.050781 -8.019531 10.03125 -8 C 10.007812 -7.988281 9.96875 -7.976562 9.90625 -7.96875 L 8.5 -7.890625 L 8.453125 -7.890625 C 8.390625 -7.890625 8.34375 -7.941406 8.3125 -8.046875 C 8.164062 -8.679688 7.875 -9.1875 7.4375 -9.5625 C 7.007812 -9.9375 6.476562 -10.125 5.84375 -10.125 C 4.851562 -10.125 4.101562 -9.753906 3.59375 -9.015625 C 3.082031 -8.285156 2.828125 -7.171875 2.828125 -5.671875 C 2.828125 -4.191406 3.082031 -3.082031 3.59375 -2.34375 C 4.101562 -1.613281 4.875 -1.25 5.90625 -1.25 C 6.59375 -1.25 7.164062 -1.414062 7.625 -1.75 C 8.09375 -2.082031 8.46875 -2.625 8.75 -3.375 C 8.757812 -3.445312 8.835938 -3.472656 8.984375 -3.453125 L 10.0625 -3.1875 C 10.15625 -3.164062 10.191406 -3.078125 10.171875 -2.921875 C 10.023438 -2.441406 9.765625 -1.96875 9.390625 -1.5 C 9.023438 -1.03125 8.535156 -0.632812 7.921875 -0.3125 C 7.316406 0 6.617188 0.15625 5.828125 0.15625 C 4.804688 0.15625 3.925781 -0.0820312 3.1875 -0.5625 C 2.445312 -1.039062 1.878906 -1.71875 1.484375 -2.59375 C 1.085938 -3.476562 0.890625 -4.507812 0.890625 -5.6875 C 0.890625 -6.875 1.082031 -7.898438 1.46875 -8.765625 C 1.863281 -9.640625 2.425781 -10.304688 3.15625 -10.765625 C 3.894531 -11.234375 4.769531 -11.46875 5.78125 -11.46875 Z M 5.78125 -11.46875 "/></g></g></g><g fill="#ffffff" fill-opacity="1"><g transform="translate(121.043411, 50.185485)"><g><path d="M 5.78125 -11.46875 C 6.476562 -11.46875 7.132812 -11.320312 7.75 -11.03125 C 8.375 -10.738281 8.890625 -10.347656 9.296875 -9.859375 C 9.703125 -9.378906 9.953125 -8.847656 10.046875 -8.265625 C 10.054688 -8.222656 10.0625 -8.171875 10.0625 -8.109375 C 10.0625 -8.054688 10.050781 -8.019531 10.03125 -8 C 10.007812 -7.988281 9.96875 -7.976562 9.90625 -7.96875 L 8.5 -7.890625 L 8.453125 -7.890625 C 8.390625 -7.890625 8.34375 -7.941406 8.3125 -8.046875 C 8.164062 -8.679688 7.875 -9.1875 7.4375 -9.5625 C 7.007812 -9.9375 6.476562 -10.125 5.84375 -10.125 C 4.851562 -10.125 4.101562 -9.753906 3.59375 -9.015625 C 3.082031 -8.285156 2.828125 -7.171875 2.828125 -5.671875 C 2.828125 -4.191406 3.082031 -3.082031 3.59375 -2.34375 C 4.101562 -1.613281 4.875 -1.25 5.90625 -1.25 C 6.59375 -1.25 7.164062 -1.414062 7.625 -1.75 C 8.09375 -2.082031 8.46875 -2.625 8.75 -3.375 C 8.757812 -3.445312 8.835938 -3.472656 8.984375 -3.453125 L 10.0625 -3.1875 C 10.15625 -3.164062 10.191406 -3.078125 10.171875 -2.921875 C 10.023438 -2.441406 9.765625 -1.96875 9.390625 -1.5 C 9.023438 -1.03125 8.535156 -0.632812 7.921875 -0.3125 C 7.316406 0 6.617188 0.15625 5.828125 0.15625 C 4.804688 0.15625 3.925781 -0.0820312 3.1875 -0.5625 C 2.445312 -1.039062 1.878906 -1.71875 1.484375 -2.59375 C 1.085938 -3.476562 0.890625 -4.507812 0.890625 -5.6875 C 0.890625 -6.875 1.082031 -7.898438 1.46875 -8.765625 C 1.863281 -9.640625 2.425781 -10.304688 3.15625 -10.765625 C 3.894531 -11.234375 4.769531 -11.46875 5.78125 -11.46875 Z M 5.78125 -11.46875 "/></g></g></g><g fill="#ffffff" fill-opacity="1"><g transform="translate(131.905373, 50.185485)"><g><path d="M 1.34375 -11.09375 C 1.34375 -11.164062 1.359375 -11.21875 1.390625 -11.25 C 1.421875 -11.289062 1.476562 -11.3125 1.5625 -11.3125 L 8.65625 -11.3125 C 8.78125 -11.3125 8.84375 -11.25 8.84375 -11.125 L 8.828125 -10.15625 C 8.828125 -10 8.75 -9.921875 8.59375 -9.921875 L 3.421875 -9.921875 C 3.265625 -9.921875 3.1875 -9.859375 3.1875 -9.734375 L 3.1875 -6.59375 C 3.1875 -6.457031 3.253906 -6.390625 3.390625 -6.390625 L 7.109375 -6.390625 C 7.242188 -6.390625 7.3125 -6.328125 7.3125 -6.203125 L 7.3125 -5.1875 C 7.3125 -5.070312 7.242188 -5.015625 7.109375 -5.015625 L 3.375 -5.015625 C 3.25 -5.015625 3.1875 -4.957031 3.1875 -4.84375 L 3.1875 -1.5625 C 3.1875 -1.5 3.195312 -1.453125 3.21875 -1.421875 C 3.25 -1.398438 3.289062 -1.390625 3.34375 -1.390625 L 8.8125 -1.390625 C 8.894531 -1.390625 8.953125 -1.375 8.984375 -1.34375 C 9.015625 -1.320312 9.03125 -1.273438 9.03125 -1.203125 L 9.03125 -0.203125 C 9.03125 -0.0664062 8.957031 0 8.8125 0 L 1.59375 0 C 1.5 0 1.429688 -0.015625 1.390625 -0.046875 C 1.359375 -0.0859375 1.34375 -0.15625 1.34375 -0.25 Z M 1.34375 -11.09375 "/></g></g></g><g fill="#ffffff" fill-opacity="1"><g transform="translate(141.6079, 50.185485)"><g><path d="M 7.59375 -9.03125 C 7.300781 -9.363281 6.957031 -9.625 6.5625 -9.8125 C 6.164062 -10.007812 5.679688 -10.109375 5.109375 -10.109375 C 4.390625 -10.109375 3.828125 -9.957031 3.421875 -9.65625 C 3.023438 -9.363281 2.828125 -8.953125 2.828125 -8.421875 C 2.828125 -7.710938 3.320312 -7.191406 4.3125 -6.859375 L 6.609375 -6.140625 C 8.335938 -5.609375 9.203125 -4.59375 9.203125 -3.09375 C 9.203125 -2.09375 8.828125 -1.300781 8.078125 -0.71875 C 7.328125 -0.132812 6.300781 0.15625 5 0.15625 C 4.03125 0.15625 3.175781 -0.0078125 2.4375 -0.34375 C 1.695312 -0.6875 1.125 -1.164062 0.71875 -1.78125 C 0.675781 -1.863281 0.65625 -1.914062 0.65625 -1.9375 C 0.65625 -2.019531 0.707031 -2.097656 0.8125 -2.171875 L 1.5625 -2.6875 C 1.644531 -2.75 1.722656 -2.78125 1.796875 -2.78125 C 1.867188 -2.78125 1.929688 -2.742188 1.984375 -2.671875 C 2.398438 -2.128906 2.8125 -1.742188 3.21875 -1.515625 C 3.632812 -1.296875 4.191406 -1.1875 4.890625 -1.1875 C 5.679688 -1.1875 6.300781 -1.320312 6.75 -1.59375 C 7.195312 -1.875 7.421875 -2.300781 7.421875 -2.875 C 7.421875 -3.25 7.304688 -3.554688 7.078125 -3.796875 C 6.847656 -4.046875 6.4375 -4.28125 5.84375 -4.5 L 3.53125 -5.25 C 2.707031 -5.519531 2.085938 -5.921875 1.671875 -6.453125 C 1.265625 -6.984375 1.0625 -7.570312 1.0625 -8.21875 C 1.0625 -8.863281 1.226562 -9.429688 1.5625 -9.921875 C 1.90625 -10.410156 2.378906 -10.789062 2.984375 -11.0625 C 3.585938 -11.332031 4.285156 -11.46875 5.078125 -11.46875 C 5.859375 -11.46875 6.566406 -11.328125 7.203125 -11.046875 C 7.835938 -10.773438 8.359375 -10.398438 8.765625 -9.921875 C 8.816406 -9.867188 8.84375 -9.816406 8.84375 -9.765625 C 8.84375 -9.703125 8.816406 -9.648438 8.765625 -9.609375 L 7.90625 -8.9375 C 7.863281 -8.90625 7.820312 -8.890625 7.78125 -8.890625 C 7.75 -8.890625 7.6875 -8.9375 7.59375 -9.03125 Z M 7.59375 -9.03125 "/></g></g></g><g fill="#ffffff" fill-opacity="1"><g transform="translate(151.554515, 50.185485)"><g><path d="M 7.59375 -9.03125 C 7.300781 -9.363281 6.957031 -9.625 6.5625 -9.8125 C 6.164062 -10.007812 5.679688 -10.109375 5.109375 -10.109375 C 4.390625 -10.109375 3.828125 -9.957031 3.421875 -9.65625 C 3.023438 -9.363281 2.828125 -8.953125 2.828125 -8.421875 C 2.828125 -7.710938 3.320312 -7.191406 4.3125 -6.859375 L 6.609375 -6.140625 C 8.335938 -5.609375 9.203125 -4.59375 9.203125 -3.09375 C 9.203125 -2.09375 8.828125 -1.300781 8.078125 -0.71875 C 7.328125 -0.132812 6.300781 0.15625 5 0.15625 C 4.03125 0.15625 3.175781 -0.0078125 2.4375 -0.34375 C 1.695312 -0.6875 1.125 -1.164062 0.71875 -1.78125 C 0.675781 -1.863281 0.65625 -1.914062 0.65625 -1.9375 C 0.65625 -2.019531 0.707031 -2.097656 0.8125 -2.171875 L 1.5625 -2.6875 C 1.644531 -2.75 1.722656 -2.78125 1.796875 -2.78125 C 1.867188 -2.78125 1.929688 -2.742188 1.984375 -2.671875 C 2.398438 -2.128906 2.8125 -1.742188 3.21875 -1.515625 C 3.632812 -1.296875 4.191406 -1.1875 4.890625 -1.1875 C 5.679688 -1.1875 6.300781 -1.320312 6.75 -1.59375 C 7.195312 -1.875 7.421875 -2.300781 7.421875 -2.875 C 7.421875 -3.25 7.304688 -3.554688 7.078125 -3.796875 C 6.847656 -4.046875 6.4375 -4.28125 5.84375 -4.5 L 3.53125 -5.25 C 2.707031 -5.519531 2.085938 -5.921875 1.671875 -6.453125 C 1.265625 -6.984375 1.0625 -7.570312 1.0625 -8.21875 C 1.0625 -8.863281 1.226562 -9.429688 1.5625 -9.921875 C 1.90625 -10.410156 2.378906 -10.789062 2.984375 -11.0625 C 3.585938 -11.332031 4.285156 -11.46875 5.078125 -11.46875 C 5.859375 -11.46875 6.566406 -11.328125 7.203125 -11.046875 C 7.835938 -10.773438 8.359375 -10.398438 8.765625 -9.921875 C 8.816406 -9.867188 8.84375 -9.816406 8.84375 -9.765625 C 8.84375 -9.703125 8.816406 -9.648438 8.765625 -9.609375 L 7.90625 -8.9375 C 7.863281 -8.90625 7.820312 -8.890625 7.78125 -8.890625 C 7.75 -8.890625 7.6875 -8.9375 7.59375 -9.03125 Z M 7.59375 -9.03125 "/></g></g></g></svg>