<svg xmlns="http://www.w3.org/2000/svg" xmlns:xlink="http://www.w3.org/1999/xlink" width="50" zoomAndPan="magnify" viewBox="0 0 37.5 30.000001" height="40" preserveAspectRatio="xMidYMid meet" version="1.0"><defs><clipPath id="b4c6c74088"><path d="M 1.242188 0 L 36.257812 0 L 36.257812 29.03125 L 1.242188 29.03125 Z M 1.242188 0 " clip-rule="nonzero"/></clipPath><clipPath id="0e4a8b180f"><path d="M 7.285156 17 L 17 17 L 17 26.351562 L 7.285156 26.351562 Z M 7.285156 17 " clip-rule="nonzero"/></clipPath></defs><g clip-path="url(#b4c6c74088)"><path fill="#002169" d="M 1.242188 0 L 36.277344 0 L 36.277344 29.195312 L 1.242188 29.195312 Z M 1.242188 0 " fill-opacity="1" fill-rule="nonzero"/></g><path fill="#ffffff" d="M 20.660156 21.695312 C 21.023438 21.695312 21.382812 21.671875 21.738281 21.628906 C 22.097656 21.585938 22.453125 21.519531 22.804688 21.433594 C 23.152344 21.34375 23.496094 21.234375 23.835938 21.105469 C 24.171875 20.976562 24.5 20.824219 24.816406 20.65625 C 25.136719 20.484375 25.445312 20.296875 25.738281 20.089844 C 26.035156 19.878906 26.316406 19.65625 26.585938 19.414062 C 26.851562 19.171875 27.105469 18.914062 27.339844 18.640625 C 27.574219 18.367188 27.792969 18.078125 27.996094 17.777344 C 28.195312 17.476562 28.378906 17.167969 28.539062 16.84375 C 28.703125 16.519531 28.84375 16.191406 28.964844 15.851562 C 29.085938 15.507812 29.1875 15.164062 29.265625 14.8125 C 29.347656 14.457031 29.402344 14.101562 29.4375 13.742188 C 29.472656 13.382812 29.488281 13.023438 29.480469 12.664062 C 29.46875 12.300781 29.4375 11.941406 29.386719 11.585938 C 29.332031 11.226562 29.257812 10.875 29.160156 10.527344 C 29.066406 10.179688 28.949219 9.835938 28.808594 9.503906 C 28.671875 9.167969 28.511719 8.847656 28.335938 8.53125 C 28.15625 8.21875 27.960938 7.914062 27.746094 7.625 C 27.53125 7.335938 27.296875 7.058594 27.046875 6.796875 C 26.800781 6.535156 26.535156 6.289062 26.257812 6.0625 C 25.976562 5.832031 25.683594 5.621094 25.378906 5.429688 C 25.074219 5.234375 24.757812 5.0625 24.429688 4.90625 C 24.105469 4.753906 23.769531 4.617188 23.425781 4.503906 C 23.085938 4.394531 22.734375 4.300781 22.382812 4.230469 C 22.027344 4.160156 21.667969 4.113281 21.308594 4.085938 C 20.949219 4.058594 20.589844 4.054688 20.226562 4.074219 C 19.867188 4.089844 19.507812 4.128906 19.152344 4.191406 C 18.796875 4.253906 18.445312 4.339844 18.101562 4.441406 C 17.753906 4.546875 17.417969 4.675781 17.085938 4.820312 C 16.757812 4.96875 16.4375 5.132812 16.128906 5.320312 C 15.816406 5.503906 15.519531 5.710938 15.234375 5.933594 C 14.949219 6.152344 14.679688 6.394531 14.425781 6.648438 C 13.808594 7.265625 13.292969 7.957031 12.882812 8.726562 C 12.472656 9.496094 12.179688 10.308594 12.011719 11.164062 C 11.839844 12.015625 11.796875 12.878906 11.882812 13.746094 C 11.96875 14.613281 12.179688 15.449219 12.511719 16.257812 C 12.847656 17.0625 13.289062 17.800781 13.84375 18.476562 C 14.394531 19.148438 15.035156 19.730469 15.761719 20.210938 C 16.484375 20.695312 17.265625 21.066406 18.101562 21.316406 C 18.933594 21.570312 19.789062 21.695312 20.660156 21.695312 Z M 20.660156 6.003906 C 21.1875 6.003906 21.710938 6.0625 22.222656 6.179688 C 22.738281 6.300781 23.230469 6.476562 23.707031 6.707031 C 24.179688 6.941406 24.621094 7.222656 25.03125 7.558594 C 25.4375 7.890625 25.804688 8.269531 26.125 8.6875 C 26.449219 9.105469 26.71875 9.554688 26.9375 10.035156 C 27.15625 10.515625 27.316406 11.015625 27.421875 11.53125 C 27.523438 12.050781 27.566406 12.570312 27.550781 13.097656 C 27.535156 13.628906 27.457031 14.144531 27.324219 14.65625 C 27.1875 15.164062 26.996094 15.652344 26.746094 16.121094 C 26.496094 16.585938 26.199219 17.015625 25.851562 17.414062 C 25.503906 17.8125 25.117188 18.164062 24.6875 18.472656 C 24.257812 18.78125 23.800781 19.035156 23.3125 19.238281 C 22.824219 19.4375 22.320312 19.582031 21.800781 19.671875 C 21.28125 19.757812 20.753906 19.78125 20.230469 19.746094 C 19.703125 19.714844 19.1875 19.621094 18.679688 19.464844 C 18.175781 19.3125 17.695312 19.105469 17.238281 18.839844 C 16.78125 18.578125 16.359375 18.265625 15.972656 17.902344 C 15.589844 17.542969 15.25 17.144531 14.957031 16.703125 C 14.664062 16.265625 14.421875 15.800781 14.238281 15.304688 C 14.050781 14.8125 13.925781 14.300781 13.855469 13.777344 C 13.785156 13.253906 13.777344 12.730469 13.832031 12.207031 C 13.882812 11.679688 13.992188 11.167969 14.164062 10.667969 C 14.332031 10.167969 14.558594 9.695312 14.835938 9.246094 C 15.117188 8.796875 15.441406 8.386719 15.816406 8.015625 C 16.457031 7.371094 17.199219 6.875 18.039062 6.527344 C 18.878906 6.179688 19.75 6.003906 20.660156 6.003906 Z M 20.660156 6.003906 " fill-opacity="1" fill-rule="nonzero"/><g clip-path="url(#0e4a8b180f)"><path fill="#ffffff" d="M 8.160156 26.351562 C 8.429688 26.351562 8.65625 26.253906 8.84375 26.066406 L 15.796875 19.117188 C 15.886719 19.027344 15.957031 18.921875 16.007812 18.804688 C 16.054688 18.683594 16.082031 18.5625 16.082031 18.433594 C 16.082031 18.304688 16.054688 18.179688 16.007812 18.0625 C 15.957031 17.941406 15.886719 17.839844 15.796875 17.746094 C 15.707031 17.65625 15.601562 17.585938 15.480469 17.535156 C 15.363281 17.488281 15.238281 17.464844 15.109375 17.464844 C 14.984375 17.464844 14.859375 17.488281 14.742188 17.535156 C 14.621094 17.585938 14.515625 17.65625 14.425781 17.746094 L 7.480469 24.699219 C 7.339844 24.835938 7.253906 25.003906 7.214844 25.195312 C 7.179688 25.386719 7.195312 25.570312 7.269531 25.753906 C 7.34375 25.933594 7.464844 26.078125 7.625 26.1875 C 7.789062 26.296875 7.964844 26.351562 8.160156 26.351562 Z M 8.160156 26.351562 " fill-opacity="1" fill-rule="nonzero"/></g></svg>